<svg xmlns="http://www.w3.org/2000/svg" viewBox="0 -0.5 64 64" shape-rendering="crispEdges"><path stroke="#000" d="M43 4h2M21 5h2m20 0h2M21 6h2m20 0h1M22 7h1m20 0h1M22 8h1m19 0h1M23 9h1m18 0h1m-20 1h1m17 0h1m-18 1h1m16 0h1m-18 1h1m15 0h1m-16 1h1m14 0h1m-16 1h1m13 0h1m-14 1h1m12 0h1m-14 1h1m11 0h1m-12 1h1m7 0h2m1 0h1m-12 1h1m5 0h2m2 0h2m-14 1h8m4 0h1m1 0h2m-18 1h2m3 0h2m6 0h1m4 0h2m-22 1h2m6 0h1m6 0h1m6 0h2m-26 1h2m8 0h1m5 0h1m9 0h2m-30 1h2m10 0h1m5 0h1m11 0h2m-34 1h2m11 0h1m1 0h1m3 0h1m14 0h2m-38 1h2m36 0h1m-41 1h2m38 0h1M9 27h2m40 0h1M8 28h1m42 0h1M8 29h1m42 0h1M8 30h1m40 0h1m1 0h1M8 31h1m39 0h1m2 0h1M8 32h1m42 0h1M8 33h1m42 0h1M8 34h1m40 0h1m1 0h1M8 35h1m42 0h1M8 36h1m42 0h1M8 37h1m42 0h1M8 38h1m40 0h1m1 0h1M8 39h1m42 0h1M9 40h1m39 0h1m1 0h1m-42 1h1m40 0h1m-41 1h1m37 0h1m1 0h1m-40 1h1m38 0h1m-39 1h1m37 0h1m-38 1h1m36 0h1m-38 1h1m34 0h2m-37 1h1m32 0h2m-35 1h1m30 0h2m-32 1h2m26 0h2m-28 1h2m22 0h2m-24 1h2m18 0h2m-20 1h2m14 0h2m-16 1h2m10 0h2m-12 1h2m6 0h2m-8 1h2m2 0h2m-4 1h2"/><path stroke="#665235" d="M35 18h2m-4 1h4m1 0h1m-8 1h5m1 0h4m-11 1h6m2 0h5m-16 1h2m1 0h1m5 0h6m2 0h1m-20 1h3m8 0h4m2 0h5m-24 1h3m14 0h9m-28 1h3m2 0h1m13 0h7m-28 1h3m2 0h3m14 0h4m-28 1h3m2 0h5m13 0h3m-27 1h2m2 0h6m13 0h2m-26 1h1m1 0h7m2 0h3m9 0h1m-20 1h8m2 0h2m5 0h1m-16 1h4m2 0h2m2 0h4m-10 1h8m-8 1h6m-4 1h2m-2 1h2"/><path stroke="#414141" d="M25 20h3m-5 1h2m-4 1h2m-6 2h2m-4 1h2m-4 1h4m10 0h1m9 0h1m-27 1h3m14 0h2m5 0h2m-7 1h5m14 1h1m-38 2h1m-3 1h1m1 1h1m-3 1h1m1 1h1m-3 1h1m1 1h1m-1 2h1"/><path stroke="#302718" d="M30 20h1m-4 1h2m-4 1h2m-4 1h2m-4 1h2m-4 1h2m-4 1h2m-5 1h3m-3 1h1m-1 1h1m-1 1h1m-1 1h1m-1 1h1m-1 1h1m-1 1h1m-1 1h1m-1 1h1m-1 1h1m-1 1h1m-1 1h1m-1 1h1m-1 1h1m-1 1h1m-1 1h1m-1 1h1"/><path stroke="#4f4f4f" d="M25 21h2m-4 1h2m-6 1h4m-4 1h2m-4 1h2m30 3h1M9 29h5m34 0h1M9 30h1m1 0h1m1 0h1m34 0h1M9 31h1m1 0h1m1 0h1m-5 1h1m1 0h1m1 0h1m-5 1h1m1 0h1m1 0h1m35 0h1M9 34h1m1 0h1m1 0h1m34 0h1M9 35h1m1 0h1m1 0h1m34 0h1M9 36h1m1 0h1m1 0h1m-5 1h1m1 0h1m1 0h1m35 0h1M9 38h1m1 0h1m1 0h1m34 0h1M9 39h3m1 0h1m34 0h2m-40 1h2m1 0h1m34 0h1m-38 1h3m34 0h2m-38 1h2m34 0h1m-36 1h1m34 0h2m-2 1h1"/><path stroke="#504129" d="M37 21h1m-4 1h1m7 0h2m-16 1h1m11 0h2m-16 1h2m10 0h2m-16 1h2m21 0h1m-26 1h2m15 0h2m4 0h2m-27 1h2m5 0h1m9 0h2m4 0h2m-30 1h1m2 0h2m6 0h4m5 0h2m4 0h2m-19 1h2m4 0h5m4 0h2m-14 1h2m2 0h2m4 0h2m-23 1h1m8 0h2m2 0h2m4 0h2m-22 1h2m6 0h2m8 0h2m-20 1h1m2 0h1m1 0h1m10 0h2m-15 1h1m1 0h1m2 0h1m5 0h2m-13 1h1m1 0h1m2 0h1m5 0h1m-14 1h1m6 0h1m5 0h1m-14 1h1m12 0h1m-14 1h1m8 0h1m3 0h1m-14 1h1m2 0h1m4 0h2m3 0h1m-14 1h1m2 0h1m1 0h1m2 0h1m4 0h1m-14 1h1m3 0h2m2 0h1m2 0h1m1 0h1m-10 1h2m1 0h1m1 0h1m1 0h1m1 0h1m-15 1h1m7 0h1m1 0h1m1 0h1m1 0h1m-15 1h1m6 0h2m1 0h1m1 0h1m1 0h1m-12 1h1m3 0h2m5 0h1m-14 1h1m1 0h1m3 0h1m6 0h1m-14 1h1m1 0h1m1 0h1m1 0h1m6 0h1m-12 1h1m1 0h1m1 0h1m4 0h1m1 0h1m-10 1h1m4 0h1m1 0h1m1 0h1m-9 1h1m1 0h1m1 0h1m1 0h1m1 0h1m-7 1h1m1 0h1m1 0h1m1 0h1m-7 1h1m1 0h1m1 0h1m1 0h1m-1 1h1m-2 1h2m-1 1h1"/><path stroke="#272727" d="M31 22h3m-4 1h1m3 0h1m1 1h1m-10 1h1m9 0h1m7 5h1m-3 1h2m1 0h1m-6 1h2m3 0h1m-8 1h2m5 0h1m-10 1h2m7 0h1m-12 1h2m9 0h1m-14 1h2m11 0h1m-15 1h1m13 0h1m-16 1h1m14 0h1m-16 1h1m14 0h1m-16 1h1m14 0h1m-16 1h1m14 0h1m-16 1h1m14 0h1m-16 1h1m14 0h1m-16 1h1m14 0h1m-16 1h1m13 0h1m-15 1h1m11 0h2m-14 1h1m9 0h2m-12 1h1m7 0h2m-10 1h1m5 0h2m-8 1h1m3 0h2m-6 1h1m1 0h2m-3 1h1"/><path stroke="#999" d="M31 23h3m-5 1h1m3 0h1m-4 1h3m5 11h3m-3 1h2m-4 1h2m-4 1h2m-2 1h1m-1 1h1m-2 1h2m-2 1h1m-1 1h1"/><path stroke="#bfbfbf" d="M31 24h2m-4 1h1m6 12h2m-4 1h2m-3 1h1m-1 1h1m-1 1h1"/><path stroke="gray" d="M35 24h1m-8 1h1m4 0h3m-8 1h5m10 6h2m-4 1h4m-6 1h5m-7 1h7m-9 1h3m3 0h2m1 0h1m-12 1h3m4 0h3m1 0h1m-13 1h2m4 0h4m1 0h2m-13 1h1m3 0h6m1 0h2m-13 1h1m2 0h10m-13 1h1m2 0h10m-13 1h1m2 0h3m1 0h6m-13 1h1m1 0h4m1 0h5m-12 1h1m1 0h3m1 0h5m-11 1h5m1 0h3m-9 1h4m1 0h2m-7 1h4m-4 1h3m-3 1h1"/><path stroke="#5b492f" d="M37 24h1m0 1h2m-2 1h1m0 1h1m-3 1h2m-10 1h1m5 0h3m-23 1h2m16 0h3m-21 1h1m1 0h2m-2 1h4m-4 1h1m1 0h1m1 0h2m-8 1h1m1 0h1m1 0h1m2 0h1m1 0h1m-10 1h1m1 0h1m1 0h1m2 0h1m1 0h3m-12 1h1m1 0h4m1 0h1m1 0h4m-13 1h1m1 0h1m1 0h2m1 0h1m1 0h4m-13 1h1m1 0h1m1 0h2m1 0h1m1 0h1m1 0h2m-13 1h1m1 0h1m2 0h3m3 0h2m-13 1h1m1 0h1m2 0h1m1 0h1m2 0h3m-13 1h1m1 0h1m1 0h1m2 0h1m2 0h2m-12 1h1m1 0h1m1 0h1m2 0h1m1 0h1m1 0h1m-10 1h1m1 0h4m1 0h1m1 0h1m-10 1h1m1 0h1m1 0h1m2 0h1m1 0h1m-12 1h1m1 0h1m1 0h1m1 0h1m2 0h1m1 0h2m-13 1h1m1 0h1m1 0h1m1 0h1m1 0h2m1 0h2m-13 1h1m1 0h1m1 0h1m1 0h1m1 0h2m1 0h2m-13 1h3m1 0h1m1 0h1m2 0h1m1 0h1m-10 1h3m1 0h2m1 0h1m1 0h1m-8 1h2m1 0h1m1 0h1m1 0h1m-6 1h2m1 0h1m1 0h1m-3 1h1m1 0h1m-2 1h3m-1 1h1"/><path stroke="#666" d="M36 25h1m-4 1h4m-7 1h5m10 4h1m-1 1h1m-1 1h1m-1 1h1m-1 1h1m-1 1h1m-1 1h1m-1 1h1m-1 1h1m-1 1h1m-1 1h1m-1 1h1m-2 1h2m-3 1h3m-5 1h4m-6 1h4m-6 1h4m-6 1h4m-6 1h4m-5 1h3m-3 1h1"/><path stroke="#403421" d="M48 25h3m-4 1h4m-6 1h6m-8 1h6m1 0h1m-10 1h7m2 0h1m-12 1h6m1 0h2m2 0h1m-14 1h6m4 0h1m1 0h2m-16 1h6m6 0h4m-18 1h6m8 0h2m1 0h1m-20 1h6m10 0h1m2 0h1m-21 1h5m12 0h1m1 0h2m-21 1h3m14 0h4m-21 1h2m15 0h2m1 0h1m-21 1h1m16 0h1m2 0h1m-21 1h1m16 0h1m2 0h1m-21 1h1m16 0h1m2 0h1m-21 1h1m16 0h1m2 0h1m-21 1h1m16 0h1m2 0h1m-21 1h1m16 0h1m2 0h1m-21 1h1m16 0h1m1 0h2m-21 1h1m15 0h5m-21 1h1m14 0h4m-19 1h1m12 0h4m-17 1h1m10 0h4m-15 1h1m8 0h4m-13 1h1m6 0h4m-11 1h1m4 0h4m-9 1h2m1 0h4m-7 1h5m-5 1h3m-3 1h1"/><path stroke="#737373" d="M9 28h5"/><path stroke="#755e3d" d="M16 29h1m0 1h2m0 1h2m0 1h2m0 1h2m0 1h2m1 2h1m-1 1h1m-1 1h1m-1 1h1m-1 1h1m-1 1h1m-1 1h1m-1 1h1m-1 1h1m-1 1h1m-1 1h1m-1 1h1m-1 1h1m-1 1h1m-1 1h1m-1 1h1m-1 1h1m-1 1h1"/><path stroke="#333" d="M10 30h1m1 0h1m-3 1h1m1 1h1m-3 1h1m1 1h1m-3 1h1m1 1h1m-3 1h1m-1 1h1m1 0h1m-1 2h1"/><path stroke="#473a24" d="M16 33h1m-1 1h1m4 0h1m-6 1h1m4 0h1m-1 1h1m-4 1h1m2 0h1m1 0h1m-6 1h1m2 0h1m1 0h1m-6 1h1m4 0h1m-6 1h1m4 0h1m-6 1h1m4 0h1m-8 1h1m1 0h1m-3 1h1m1 0h1m-3 1h1m1 0h1m1 0h1m-5 1h1m3 0h1m4 0h1m-6 1h1m4 0h1m-1 1h1m-3 1h1m1 0h1m-3 1h1"/><path stroke="#8c8c8c" d="M44 34h1m-1 1h1m-2 1h1m-1 1h1m-2 1h1m-1 1h1m-5 3h1m-1 1h1m-2 1h1m-1 1h1m-2 1h1m-1 1h1"/><path stroke="silver" d="M52 44h1m-1 1h2m-3 1h3m-41 1h1m35 0h4m-41 1h2m33 0h6m-41 1h3m30 0h6m-38 1h4m26 0h6m-35 1h5m22 0h6m-31 1h5m18 0h6m-27 1h5m14 0h6m-23 1h5m10 0h6m-19 1h5m6 0h6m-15 1h5m2 0h6m-11 1h9m-7 1h5"/></svg>