<svg xmlns="http://www.w3.org/2000/svg" width="74" height="74"><path d="M6 20v6h60v-6h-4v2h-6V12h-2V8h-2V6h-4V4H24v2h-4v2h-2v4h-2v10h-6v-2z"/><path fill="#C1200A" d="M14 26v2h-2v6h-2v10h2v8h2v2h2v4h2v2h4v2h2v12h10v-6h-2v-2h6v8h10v-6h-2v-4h2v-2h2v-2h4v-2h2v-4h2v-2h2v-8h2v-8h-2v-8h-2v-2z"/><path fill="#FBAA9E" d="M16 26v2h-2v6h-2v10h2v8h2v2h2v4h4v2h2v2h8v2h8v-2h8v-2h2v-2H40v-6h18v-8h2v-8h-2v-8h-2v-2z"/><path fill="#C1200A" d="M22 40v2h-2v12h8V42h2v-2h-2v2h-2v10h-4V42h2v-2zm20-12h6v2h-6zm0 14h6v2h-6zm-2-12h2v12h-2zm8 0h2v12h-2zm6-2h2v2h-2zm0 14h2v2h-2zm-2-12h2v12h-2zm4 0h2v12h-2z"/><path fill="#fff" d="M42 30h6v12h-6zm12 0h2v12h-2zM42 54h12v2H42z"/><path fill="#F76A56" d="M26 64v8h6v-2h-2v-6zm14 0v8h6v-2h-2v-6z"/></svg>