<?xml version="1.0" encoding="UTF-8"?>
<svg xmlns="http://www.w3.org/2000/svg" xmlns:xlink="http://www.w3.org/1999/xlink" width="70px" height="70px" viewBox="0 0 70 70" version="1.1">
<g id="surface1">
<path style="fill-rule:nonzero;fill:rgb(0%,0%,0%);fill-opacity:1;stroke-width:1;stroke-linecap:butt;stroke-linejoin:miter;stroke:rgb(11.764706%,8.627451%,37.647059%);stroke-opacity:1;stroke-miterlimit:4;" d="M 57.001897 1.000893 L 59.001563 1.000893 M 55.002232 1.998438 L 57.001897 1.998438 M 57.999442 1.998438 L 59.001563 1.998438 M 52.000446 3.000558 L 55.002232 3.000558 M 57.999442 3.000558 L 59.001563 3.000558 M 50.000781 3.998103 L 52.000446 3.998103 M 39.997879 5.997768 L 41 5.997768 M 39.997879 6.999888 L 41 6.999888 M 18.999107 8.002009 L 20.001228 8.002009 M 39.000335 8.002009 L 41 8.002009 M 18.999107 8.999554 L 20.001228 8.999554 M 35.001004 8.999554 L 39.000335 8.999554 M 18.001563 10.001674 L 18.999107 10.001674 M 65.000558 10.001674 L 65.998103 10.001674 M 18.001563 10.999219 L 18.999107 10.999219 M 63.000893 10.999219 L 65.000558 10.999219 M 16.999442 12.001339 L 18.001563 12.001339 M 61.001228 12.001339 L 63.000893 12.001339 M 16.999442 12.998884 L 18.001563 12.998884 M 55.999777 12.998884 L 61.001228 12.998884 M 16.999442 14.001004 L 18.001563 14.001004 M 52.997991 14.001004 L 55.999777 14.001004 M 16.001897 14.998549 L 16.999442 14.998549 M 46.998996 14.998549 L 52.997991 14.998549 M 16.001897 16.00067 L 16.999442 16.00067 M 42.999665 16.00067 L 46.998996 16.00067 M 16.001897 16.998214 L 16.999442 16.998214 M 16.001897 18.000335 L 16.999442 18.000335 M 14.999777 18.997879 L 18.001563 18.997879 M 14.999777 20 L 18.001563 20 M 14.999777 21.002121 L 18.999107 21.002121 M 14.999777 21.999665 L 18.999107 21.999665 M 14.999777 23.001786 L 18.999107 23.001786 M 22.000893 23.001786 L 22.998438 23.001786 M 14.999777 23.99933 L 20.001228 23.99933 M 20.998772 23.99933 L 22.000893 23.99933 M 27.999888 23.99933 L 29.002009 23.99933 M 14.999777 25.001451 L 20.001228 25.001451 M 26.997768 25.001451 L 27.999888 25.001451 M 16.001897 25.998996 L 20.998772 25.998996 M 26.000223 25.998996 L 26.997768 25.998996 M 16.001897 27.001116 L 20.001228 27.001116 M 16.001897 27.998661 L 20.001228 27.998661 M 24.000558 27.998661 L 24.998103 27.998661 M 16.001897 29.000781 L 18.999107 29.000781 M 24.000558 29.000781 L 24.998103 29.000781 M 16.999442 29.998326 L 18.999107 29.998326 M 22.998438 29.998326 L 24.000558 29.998326 M 16.999442 31.000446 L 18.999107 31.000446 M 22.998438 31.000446 L 24.000558 31.000446 M 16.999442 31.997991 L 18.001563 31.997991 M 22.000893 34.002232 L 22.998438 34.002232 M 22.000893 34.999777 L 22.998438 34.999777 M 20.998772 36.999442 L 22.000893 36.999442 M 20.998772 38.001562 L 22.000893 38.001562 M 20.001228 40.998772 L 20.998772 40.998772 M 57.999442 42.000893 L 67.997768 42.000893 M 22.000893 42.998438 L 22.998438 42.998438 M 55.999777 42.998438 L 57.999442 42.998438 M 20.998772 44.000558 L 22.000893 44.000558 M 57.999442 46.000223 L 59.999107 46.000223 M 57.999442 46.997768 L 59.001563 46.997768 M 63.998438 46.997768 L 65.000558 46.997768 M 63.000893 47.999888 L 63.998438 47.999888 M 16.001897 49.002009 L 16.999442 49.002009 M 65.998103 49.002009 L 67.000223 49.002009 M 14.999777 49.999554 L 16.001897 49.999554 M 24.000558 49.999554 L 26.000223 49.999554 M 65.000558 49.999554 L 65.998103 49.999554 M 14.002232 51.001674 L 14.999777 51.001674 M 22.998438 51.001674 L 24.998103 51.001674 M 11.997991 51.999219 L 13.000112 51.999219 M 22.000893 51.999219 L 24.000558 51.999219 M 9.998326 53.001339 L 11.000446 53.001339 M 20.998772 53.001339 L 22.998438 53.001339 M 7.998661 53.998884 L 9.998326 53.998884 M 18.999107 53.998884 L 20.998772 53.998884 M 9.998326 55.001004 L 13.000112 55.001004 M 55.999777 55.001004 L 57.999442 55.001004 M 57.001897 55.998549 L 57.999442 55.998549 M 57.999442 57.00067 L 59.001563 57.00067 M 20.001228 59.997879 L 24.000558 59.997879 M 29.002009 59.997879 L 31.001674 59.997879 M 18.001563 61 L 31.001674 61 M 16.999442 62.002121 L 31.001674 62.002121 M 20.001228 62.999665 L 29.999554 62.999665 M 24.000558 64.001786 L 29.999554 64.001786 M 29.002009 64.99933 L 29.999554 64.99933 M 26.000223 66.001451 L 26.997768 66.001451 " transform="matrix(0.853659,0,0,0.853659,0,0.426829)"/>
<path style="fill-rule:nonzero;fill:rgb(0%,0%,0%);fill-opacity:1;stroke-width:1;stroke-linecap:butt;stroke-linejoin:miter;stroke:rgb(49.019608%,46.27451%,68.235294%);stroke-opacity:1;stroke-miterlimit:4;" d="M 57.001897 1.998438 L 57.999442 1.998438 M 55.002232 3.000558 L 57.999442 3.000558 M 41 3.998103 L 46.998996 3.998103 M 52.000446 3.998103 L 55.999777 3.998103 M 42.002121 5.000223 L 46.001451 5.000223 M 50.998326 5.000223 L 52.997991 5.000223 M 44.001786 5.997768 L 50.000781 5.997768 M 44.001786 6.999888 L 46.001451 6.999888 M 44.001786 8.002009 L 46.001451 8.002009 M 39.000335 8.999554 L 42.002121 8.999554 M 44.99933 8.999554 L 46.998996 8.999554 M 42.999665 10.001674 L 46.998996 10.001674 M 42.002121 10.999219 L 44.001786 10.999219 M 46.001451 10.999219 L 48.001116 10.999219 M 29.999554 12.001339 L 39.000335 12.001339 M 46.001451 12.001339 L 46.998996 12.001339 M 39.997879 12.998884 L 41 12.998884 M 37.00067 14.001004 L 37.998214 14.001004 M 33.998884 14.998549 L 35.001004 14.998549 M 31.999219 16.00067 L 33.001339 16.00067 M 35.001004 16.00067 L 35.998549 16.00067 " transform="matrix(0.853659,0,0,0.853659,0,0.426829)"/>
<path style="fill-rule:nonzero;fill:rgb(0%,0%,0%);fill-opacity:1;stroke-width:1;stroke-linecap:butt;stroke-linejoin:miter;stroke:rgb(32.941176%,29.803922%,56.078431%);stroke-opacity:1;stroke-miterlimit:4;" d="M 41 3.000558 L 42.002121 3.000558 M 44.99933 3.000558 L 46.998996 3.000558 M 39.997879 3.998103 L 41 3.998103 M 46.998996 3.998103 L 50.000781 3.998103 M 55.999777 3.998103 L 57.001897 3.998103 M 39.997879 5.000223 L 41 5.000223 M 54.000112 5.000223 L 55.002232 5.000223 M 20.001228 6.999888 L 20.998772 6.999888 M 26.997768 8.002009 L 29.002009 8.002009 M 29.002009 8.999554 L 35.001004 8.999554 M 18.999107 10.001674 L 20.001228 10.001674 M 18.999107 10.999219 L 20.001228 10.999219 M 26.000223 10.999219 L 26.997768 10.999219 M 44.001786 10.999219 L 46.001451 10.999219 M 18.001563 12.001339 L 20.001228 12.001339 M 26.997768 12.001339 L 29.002009 12.001339 M 39.000335 12.001339 L 44.001786 12.001339 M 63.000893 12.001339 L 65.000558 12.001339 M 18.001563 12.998884 L 20.001228 12.998884 M 27.999888 12.998884 L 39.997879 12.998884 M 61.001228 12.998884 L 63.998438 12.998884 M 18.001563 14.001004 L 20.001228 14.001004 M 27.999888 14.001004 L 37.00067 14.001004 M 55.999777 14.001004 L 61.998772 14.001004 M 16.999442 14.998549 L 20.998772 14.998549 M 29.002009 14.998549 L 33.998884 14.998549 M 52.997991 14.998549 L 57.999442 14.998549 M 16.999442 16.00067 L 20.998772 16.00067 M 29.999554 16.00067 L 31.999219 16.00067 M 46.998996 16.00067 L 55.002232 16.00067 M 16.999442 16.998214 L 22.000893 16.998214 M 39.997879 16.998214 L 42.999665 16.998214 M 44.99933 16.998214 L 50.000781 16.998214 M 16.999442 18.000335 L 22.000893 18.000335 M 37.00067 18.000335 L 39.997879 18.000335 M 44.001786 18.000335 L 46.001451 18.000335 M 18.001563 18.997879 L 22.000893 18.997879 M 33.998884 18.997879 L 37.00067 18.997879 M 18.001563 20 L 22.998438 20 M 33.001339 20 L 33.998884 20 M 18.999107 21.002121 L 22.998438 21.002121 M 18.999107 21.999665 L 22.998438 21.999665 M 18.999107 23.001786 L 22.000893 23.001786 M 20.001228 23.99933 L 20.998772 23.99933 M 33.001339 23.99933 L 33.998884 23.99933 M 20.001228 25.001451 L 20.998772 25.001451 M 31.999219 25.001451 L 33.001339 25.001451 M 31.001674 25.998996 L 31.999219 25.998996 M 24.998103 27.001116 L 26.997768 27.001116 M 29.999554 27.001116 L 31.001674 27.001116 M 24.998103 27.998661 L 26.000223 27.998661 M 24.998103 29.000781 L 26.000223 29.000781 M 29.002009 29.000781 L 29.999554 29.000781 M 24.000558 29.998326 L 24.998103 29.998326 M 27.999888 29.998326 L 29.002009 29.998326 M 24.000558 31.000446 L 24.998103 31.000446 M 22.998438 31.997991 L 24.000558 31.997991 M 26.997768 31.997991 L 27.999888 31.997991 M 22.998438 33.000112 L 24.000558 33.000112 M 26.000223 34.002232 L 26.997768 34.002232 M 22.998438 34.999777 L 24.000558 34.999777 M 22.000893 36.001897 L 26.000223 36.001897 M 22.000893 36.999442 L 24.998103 36.999442 M 22.000893 38.001562 L 24.998103 38.001562 M 20.998772 38.999107 L 24.000558 38.999107 M 20.998772 40.001228 L 24.000558 40.001228 M 20.998772 40.998772 L 22.998438 40.998772 M 20.001228 42.000893 L 22.998438 42.000893 M 20.001228 42.998438 L 22.000893 42.998438 M 54.000112 44.000558 L 55.002232 44.000558 M 52.997991 44.998103 L 54.000112 44.998103 M 55.002232 46.000223 L 55.999777 46.000223 M 57.001897 46.000223 L 57.999442 46.000223 M 59.999107 46.000223 L 61.998772 46.000223 M 59.001563 46.997768 L 61.001228 46.997768 M 57.999442 47.999888 L 59.999107 47.999888 M 57.001897 49.002009 L 59.001563 49.002009 M 61.998772 49.002009 L 65.998103 49.002009 M 57.001897 49.999554 L 61.001228 49.999554 M 57.999442 51.001674 L 59.001563 51.001674 M 59.999107 51.999219 L 61.001228 51.999219 M 55.002232 53.001339 L 59.999107 53.001339 M 55.999777 53.998884 L 59.001563 53.998884 " transform="matrix(0.853659,0,0,0.853659,0,0.426829)"/>
<path style="fill-rule:nonzero;fill:rgb(0%,0%,0%);fill-opacity:1;stroke-width:1;stroke-linecap:butt;stroke-linejoin:miter;stroke:rgb(56.862745%,37.647059%,68.235294%);stroke-opacity:1;stroke-miterlimit:4;" d="M 42.002121 3.000558 L 44.99933 3.000558 M 41 5.000223 L 42.002121 5.000223 M 41 5.997768 L 44.001786 5.997768 M 20.998772 6.999888 L 24.000558 6.999888 M 41 6.999888 L 44.001786 6.999888 M 20.001228 8.002009 L 20.998772 8.002009 M 22.000893 8.002009 L 26.997768 8.002009 M 41 8.002009 L 44.001786 8.002009 M 20.001228 8.999554 L 20.998772 8.999554 M 22.998438 8.999554 L 29.002009 8.999554 M 42.002121 8.999554 L 44.99933 8.999554 M 24.000558 10.001674 L 29.999554 10.001674 M 24.998103 10.999219 L 26.000223 10.999219 M 26.997768 10.999219 L 33.001339 10.999219 M 41 10.999219 L 42.002121 10.999219 M 26.000223 12.001339 L 26.997768 12.001339 M 29.002009 12.001339 L 29.999554 12.001339 M 20.001228 12.998884 L 20.998772 12.998884 M 26.997768 12.998884 L 27.999888 12.998884 M 20.001228 14.001004 L 20.998772 14.001004 M 26.997768 14.001004 L 27.999888 14.001004 M 20.998772 14.998549 L 22.000893 14.998549 M 27.999888 14.998549 L 29.002009 14.998549 M 20.998772 16.00067 L 22.000893 16.00067 M 27.999888 16.00067 L 29.999554 16.00067 M 42.999665 16.998214 L 44.99933 16.998214 M 22.000893 18.000335 L 22.998438 18.000335 M 39.997879 18.000335 L 44.001786 18.000335 M 22.000893 18.997879 L 22.998438 18.997879 M 37.00067 18.997879 L 42.002121 18.997879 M 33.998884 20 L 39.997879 20 M 35.001004 21.002121 L 37.998214 21.002121 M 35.001004 21.999665 L 35.998549 21.999665 M 33.998884 23.001786 L 35.001004 23.001786 M 26.000223 27.998661 L 26.997768 27.998661 M 29.002009 27.998661 L 29.999554 27.998661 M 26.000223 29.000781 L 26.997768 29.000781 M 24.998103 29.998326 L 27.999888 29.998326 M 24.998103 31.000446 L 27.999888 31.000446 M 24.000558 31.997991 L 26.997768 31.997991 M 24.000558 33.000112 L 26.997768 33.000112 M 22.998438 34.002232 L 26.000223 34.002232 M 24.000558 34.999777 L 26.000223 34.999777 M 57.999442 42.998438 L 59.001563 42.998438 M 65.998103 42.998438 L 67.000223 42.998438 M 55.002232 44.000558 L 55.999777 44.000558 M 65.000558 44.000558 L 67.000223 44.000558 M 54.000112 44.998103 L 59.001563 44.998103 M 55.999777 46.000223 L 57.001897 46.000223 M 61.001228 46.997768 L 61.998772 46.997768 M 59.999107 47.999888 L 61.001228 47.999888 M 59.001563 49.002009 L 61.998772 49.002009 M 61.001228 49.999554 L 63.998438 49.999554 M 59.001563 51.001674 L 63.000893 51.001674 M 57.999442 51.999219 L 59.999107 51.999219 " transform="matrix(0.853659,0,0,0.853659,0,0.426829)"/>
<path style="fill-rule:nonzero;fill:rgb(0%,0%,0%);fill-opacity:1;stroke-width:1;stroke-linecap:butt;stroke-linejoin:miter;stroke:rgb(0%,0%,0%);stroke-opacity:1;stroke-miterlimit:4;" d="M 57.001897 3.998103 L 57.999442 3.998103 M 55.002232 5.000223 L 57.001897 5.000223 M 52.997991 5.997768 L 55.002232 5.997768 M 50.998326 6.999888 L 52.997991 6.999888 M 46.001451 8.002009 L 50.998326 8.002009 M 46.998996 8.999554 L 48.001116 8.999554 M 46.998996 10.001674 L 48.001116 10.001674 M 65.998103 10.001674 L 67.000223 10.001674 M 48.001116 10.999219 L 48.998661 10.999219 M 65.998103 10.999219 L 67.000223 10.999219 M 46.998996 12.001339 L 48.998661 12.001339 M 65.998103 12.001339 L 67.000223 12.001339 M 44.001786 12.998884 L 46.998996 12.998884 M 65.000558 12.998884 L 65.998103 12.998884 M 41 14.001004 L 44.001786 14.001004 M 65.000558 14.001004 L 65.998103 14.001004 M 37.998214 14.998549 L 41 14.998549 M 65.000558 14.998549 L 65.998103 14.998549 M 35.998549 16.00067 L 37.998214 16.00067 M 63.998438 16.00067 L 65.000558 16.00067 M 14.999777 16.998214 L 16.001897 16.998214 M 33.001339 16.998214 L 35.998549 16.998214 M 63.998438 16.998214 L 65.000558 16.998214 M 14.999777 18.000335 L 16.001897 18.000335 M 33.998884 18.000335 L 35.001004 18.000335 M 63.000893 18.000335 L 63.998438 18.000335 M 14.002232 18.997879 L 14.999777 18.997879 M 61.998772 18.997879 L 63.000893 18.997879 M 14.002232 20 L 14.999777 20 M 61.001228 20 L 61.998772 20 M 13.000112 21.002121 L 14.002232 21.002121 M 59.999107 21.002121 L 61.001228 21.002121 M 13.000112 21.999665 L 14.002232 21.999665 M 37.998214 21.999665 L 42.999665 21.999665 M 59.001563 21.999665 L 59.999107 21.999665 M 11.997991 23.001786 L 13.000112 23.001786 M 35.998549 23.001786 L 41 23.001786 M 57.999442 23.001786 L 59.001563 23.001786 M 11.997991 23.99933 L 13.000112 23.99933 M 35.001004 23.99933 L 39.997879 23.99933 M 42.002121 23.99933 L 44.99933 23.99933 M 57.001897 23.99933 L 57.999442 23.99933 M 11.997991 25.001451 L 13.000112 25.001451 M 39.000335 25.001451 L 42.999665 25.001451 M 55.999777 25.001451 L 63.000893 25.001451 M 11.997991 25.998996 L 13.000112 25.998996 M 39.997879 25.998996 L 41 25.998996 M 61.998772 25.998996 L 63.000893 25.998996 M 11.997991 27.001116 L 13.000112 27.001116 M 20.001228 27.001116 L 22.000893 27.001116 M 61.001228 27.001116 L 61.998772 27.001116 M 11.997991 27.998661 L 13.000112 27.998661 M 20.001228 27.998661 L 22.000893 27.998661 M 59.999107 27.998661 L 61.001228 27.998661 M 13.000112 29.000781 L 14.002232 29.000781 M 18.999107 29.000781 L 22.000893 29.000781 M 59.001563 29.000781 L 59.999107 29.000781 M 13.000112 29.998326 L 14.002232 29.998326 M 18.999107 29.998326 L 22.000893 29.998326 M 57.001897 29.998326 L 59.001563 29.998326 M 14.002232 31.000446 L 14.999777 31.000446 M 18.999107 31.000446 L 22.998438 31.000446 M 52.997991 31.000446 L 57.001897 31.000446 M 14.002232 31.997991 L 14.999777 31.997991 M 18.999107 31.997991 L 22.998438 31.997991 M 54.000112 31.997991 L 55.002232 31.997991 M 14.999777 33.000112 L 16.001897 33.000112 M 18.999107 33.000112 L 22.000893 33.000112 M 54.000112 33.000112 L 55.002232 33.000112 M 14.999777 34.002232 L 16.001897 34.002232 M 18.999107 34.002232 L 22.000893 34.002232 M 52.000446 34.002232 L 54.000112 34.002232 M 16.001897 34.999777 L 16.999442 34.999777 M 20.998772 34.999777 L 22.000893 34.999777 M 50.000781 34.999777 L 52.000446 34.999777 M 16.999442 36.001897 L 18.001563 36.001897 M 48.001116 36.001897 L 50.000781 36.001897 M 18.001563 36.999442 L 18.999107 36.999442 M 48.001116 36.999442 L 50.000781 36.999442 M 18.999107 38.001562 L 20.001228 38.001562 M 20.001228 38.999107 L 20.998772 38.999107 M 20.001228 40.001228 L 20.998772 40.001228 M 50.998326 40.001228 L 52.000446 40.001228 M 18.999107 40.998772 L 20.001228 40.998772 M 50.000781 40.998772 L 52.000446 40.998772 M 18.999107 42.000893 L 20.001228 42.000893 M 18.001563 42.998438 L 18.999107 42.998438 M 22.998438 42.998438 L 24.000558 42.998438 M 54.000112 42.998438 L 55.999777 42.998438 M 67.000223 42.998438 L 67.997768 42.998438 M 16.999442 44.000558 L 18.001563 44.000558 M 22.000893 44.000558 L 26.000223 44.000558 M 52.000446 44.000558 L 54.000112 44.000558 M 67.000223 44.000558 L 67.997768 44.000558 M 16.001897 44.998103 L 16.999442 44.998103 M 22.000893 44.998103 L 29.002009 44.998103 M 65.998103 44.998103 L 67.000223 44.998103 M 14.999777 46.000223 L 16.001897 46.000223 M 20.998772 46.000223 L 26.997768 46.000223 M 65.000558 46.000223 L 65.998103 46.000223 M 14.002232 46.997768 L 14.999777 46.997768 M 20.001228 46.997768 L 26.997768 46.997768 M 13.000112 47.999888 L 14.002232 47.999888 M 18.999107 47.999888 L 22.000893 47.999888 M 22.998438 47.999888 L 26.000223 47.999888 M 11.997991 49.002009 L 13.000112 49.002009 M 18.001563 49.002009 L 20.001228 49.002009 M 9.998326 49.999554 L 11.997991 49.999554 M 5.998996 51.001674 L 9.998326 51.001674 M 63.998438 51.001674 L 65.000558 51.001674 M 5.998996 51.999219 L 7.001116 51.999219 M 63.000893 51.999219 L 63.998438 51.999219 M 5.998996 53.001339 L 7.001116 53.001339 M 24.000558 53.001339 L 24.998103 53.001339 M 61.998772 53.001339 L 63.000893 53.001339 M 7.001116 53.998884 L 7.998661 53.998884 M 22.998438 53.998884 L 24.000558 53.998884 M 61.001228 53.998884 L 61.998772 53.998884 M 7.998661 55.001004 L 9.998326 55.001004 M 20.998772 55.001004 L 24.000558 55.001004 M 59.999107 55.001004 L 61.001228 55.001004 M 9.998326 55.998549 L 20.998772 55.998549 M 22.000893 55.998549 L 22.998438 55.998549 M 59.001563 55.998549 L 59.999107 55.998549 M 20.998772 57.00067 L 22.000893 57.00067 M 59.001563 57.00067 L 59.999107 57.00067 M 20.998772 57.998214 L 22.000893 57.998214 M 57.999442 57.998214 L 59.001563 57.998214 M 20.001228 59.000335 L 22.000893 59.000335 M 59.001563 59.000335 L 59.999107 59.000335 M 18.001563 59.997879 L 20.001228 59.997879 M 57.001897 59.997879 L 59.999107 59.997879 M 16.999442 61 L 18.001563 61 M 55.999777 61 L 57.001897 61 M 16.001897 62.002121 L 16.999442 62.002121 M 55.999777 62.002121 L 57.001897 62.002121 M 16.001897 62.999665 L 18.001563 62.999665 M 55.002232 62.999665 L 55.999777 62.999665 M 18.001563 64.001786 L 20.001228 64.001786 M 54.000112 64.001786 L 55.999777 64.001786 M 20.001228 64.99933 L 22.000893 64.99933 M 29.999554 64.99933 L 31.001674 64.99933 M 52.997991 64.99933 L 54.000112 64.99933 M 22.000893 66.001451 L 26.000223 66.001451 M 31.001674 66.001451 L 31.999219 66.001451 M 52.000446 66.001451 L 54.000112 66.001451 M 26.000223 66.998996 L 31.999219 66.998996 M 50.998326 66.998996 L 52.000446 66.998996 M 31.999219 68.001116 L 33.001339 68.001116 M 50.998326 68.001116 L 52.000446 68.001116 M 31.999219 68.998661 L 35.001004 68.998661 M 50.000781 68.998661 L 52.000446 68.998661 M 35.001004 70.998326 L 39.000335 70.998326 M 39.000335 72.000446 L 39.997879 72.000446 M 39.997879 72.997991 L 41 72.997991 M 41 74.000112 L 42.002121 74.000112 M 41 75.002232 L 42.002121 75.002232 M 52.997991 75.002232 L 55.999777 75.002232 M 42.002121 75.999777 L 42.999665 75.999777 M 55.999777 75.999777 L 57.001897 75.999777 M 42.002121 77.001897 L 42.999665 77.001897 M 44.001786 77.001897 L 46.001451 77.001897 M 55.002232 77.001897 L 55.999777 77.001897 M 42.002121 77.999442 L 44.001786 77.999442 M 46.001451 77.999442 L 46.998996 77.999442 M 52.997991 77.999442 L 55.002232 77.999442 M 46.998996 79.001563 L 52.997991 79.001563 " transform="matrix(0.853659,0,0,0.853659,0,0.426829)"/>
<path style="fill:none;stroke-width:1;stroke-linecap:butt;stroke-linejoin:miter;stroke:rgb(40%,47.45098%,78.039216%);stroke-opacity:1;stroke-miterlimit:4;" d="M 46.001451 5.000223 L 50.998326 5.000223 " transform="matrix(0.853659,0,0,0.853659,0,0.426829)"/>
<path style="fill-rule:nonzero;fill:rgb(0%,0%,0%);fill-opacity:1;stroke-width:1;stroke-linecap:butt;stroke-linejoin:miter;stroke:rgb(94.117647%,69.019608%,95.686275%);stroke-opacity:1;stroke-miterlimit:4;" d="M 52.997991 5.000223 L 54.000112 5.000223 M 46.998996 6.999888 L 48.998661 6.999888 M 50.000781 6.999888 L 50.998326 6.999888 M 44.001786 12.001339 L 44.99933 12.001339 M 42.002121 12.998884 L 42.999665 12.998884 M 35.001004 14.998549 L 37.00067 14.998549 M 59.999107 42.998438 L 61.998772 42.998438 M 65.000558 44.998103 L 65.998103 44.998103 M 61.998772 46.997768 L 63.000893 46.997768 M 63.000893 51.001674 L 63.998438 51.001674 M 59.001563 55.001004 L 59.999107 55.001004 " transform="matrix(0.853659,0,0,0.853659,0,0.426829)"/>
<path style="fill-rule:nonzero;fill:rgb(0%,0%,0%);fill-opacity:1;stroke-width:1;stroke-linecap:butt;stroke-linejoin:miter;stroke:rgb(97.254902%,81.568627%,94.509804%);stroke-opacity:1;stroke-miterlimit:4;" d="M 50.000781 5.997768 L 52.997991 5.997768 M 48.998661 6.999888 L 50.000781 6.999888 M 24.000558 12.998884 L 24.998103 12.998884 M 41 12.998884 L 42.002121 12.998884 M 24.000558 14.001004 L 26.000223 14.001004 M 37.998214 14.001004 L 41 14.001004 M 24.998103 14.998549 L 26.000223 14.998549 M 37.00067 14.998549 L 37.998214 14.998549 M 31.001674 21.999665 L 33.001339 21.999665 M 29.999554 23.001786 L 31.999219 23.001786 M 63.998438 46.000223 L 65.000558 46.000223 M 63.000893 46.997768 L 63.998438 46.997768 M 61.001228 47.999888 L 63.000893 47.999888 M 61.998772 51.999219 L 63.000893 51.999219 M 61.001228 53.001339 L 61.998772 53.001339 M 59.999107 53.998884 L 61.001228 53.998884 " transform="matrix(0.853659,0,0,0.853659,0,0.426829)"/>
<path style="fill-rule:nonzero;fill:rgb(0%,0%,0%);fill-opacity:1;stroke-width:1;stroke-linecap:butt;stroke-linejoin:miter;stroke:rgb(82.745098%,49.019608%,84.313725%);stroke-opacity:1;stroke-miterlimit:4;" d="M 46.001451 6.999888 L 46.998996 6.999888 M 20.998772 8.002009 L 22.000893 8.002009 M 20.998772 8.999554 L 22.998438 8.999554 M 20.001228 10.001674 L 24.000558 10.001674 M 29.999554 10.001674 L 42.999665 10.001674 M 20.001228 10.999219 L 24.998103 10.999219 M 33.001339 10.999219 L 41 10.999219 M 20.001228 12.001339 L 26.000223 12.001339 M 44.99933 12.001339 L 46.001451 12.001339 M 20.998772 12.998884 L 24.000558 12.998884 M 24.998103 12.998884 L 26.997768 12.998884 M 42.999665 12.998884 L 44.001786 12.998884 M 20.998772 14.001004 L 24.000558 14.001004 M 26.000223 14.001004 L 26.997768 14.001004 M 22.000893 14.998549 L 24.998103 14.998549 M 26.000223 14.998549 L 27.999888 14.998549 M 22.000893 16.00067 L 27.999888 16.00067 M 33.001339 16.00067 L 35.001004 16.00067 M 22.000893 16.998214 L 29.002009 16.998214 M 22.998438 18.000335 L 26.000223 18.000335 M 22.998438 18.997879 L 24.000558 18.997879 M 31.999219 21.002121 L 35.001004 21.002121 M 33.001339 21.999665 L 35.001004 21.999665 M 31.999219 23.001786 L 33.998884 23.001786 M 29.002009 23.99933 L 33.001339 23.99933 M 27.999888 25.001451 L 31.999219 25.001451 M 26.997768 25.998996 L 31.001674 25.998996 M 26.997768 27.001116 L 29.999554 27.001116 M 26.997768 27.998661 L 29.002009 27.998661 M 26.997768 29.000781 L 29.002009 29.000781 M 59.001563 42.998438 L 59.999107 42.998438 M 61.998772 42.998438 L 65.998103 42.998438 M 55.999777 44.000558 L 65.000558 44.000558 M 59.001563 44.998103 L 65.000558 44.998103 M 61.998772 46.000223 L 63.998438 46.000223 M 63.998438 49.999554 L 65.000558 49.999554 M 61.001228 51.999219 L 61.998772 51.999219 M 59.999107 53.001339 L 61.001228 53.001339 M 59.001563 53.998884 L 59.999107 53.998884 M 57.999442 55.001004 L 59.001563 55.001004 M 57.999442 55.998549 L 59.001563 55.998549 " transform="matrix(0.853659,0,0,0.853659,0,0.426829)"/>
<path style="fill-rule:nonzero;fill:rgb(0%,0%,0%);fill-opacity:1;stroke-width:1;stroke-linecap:butt;stroke-linejoin:miter;stroke:rgb(17.254902%,13.72549%,21.176471%);stroke-opacity:1;stroke-miterlimit:4;" d="M 65.000558 10.999219 L 65.998103 10.999219 M 65.000558 12.001339 L 65.998103 12.001339 M 61.998772 14.001004 L 63.000893 14.001004 M 57.999442 14.998549 L 63.000893 14.998549 M 55.002232 16.00067 L 55.999777 16.00067 M 57.999442 16.00067 L 61.998772 16.00067 M 50.000781 16.998214 L 50.998326 16.998214 M 55.002232 16.998214 L 61.998772 16.998214 M 46.001451 18.000335 L 46.998996 18.000335 M 52.000446 18.000335 L 61.001228 18.000335 M 42.002121 18.997879 L 44.001786 18.997879 M 48.998661 18.997879 L 59.999107 18.997879 M 27.999888 20 L 31.001674 20 M 39.997879 20 L 41 20 M 46.001451 20 L 59.001563 20 M 26.000223 21.002121 L 29.999554 21.002121 M 37.998214 21.002121 L 39.000335 21.002121 M 46.998996 21.002121 L 57.999442 21.002121 M 26.000223 21.999665 L 29.002009 21.999665 M 35.998549 21.999665 L 37.00067 21.999665 M 48.998661 21.999665 L 52.000446 21.999665 M 52.997991 21.999665 L 59.001563 21.999665 M 52.000446 23.001786 L 57.999442 23.001786 M 50.000781 23.99933 L 55.999777 23.99933 M 22.000893 25.001451 L 24.000558 25.001451 M 48.998661 25.001451 L 54.000112 25.001451 M 22.000893 25.998996 L 24.000558 25.998996 M 48.001116 25.998996 L 57.999442 25.998996 M 52.000446 27.001116 L 57.999442 27.001116 M 59.999107 27.001116 L 61.001228 27.001116 M 50.000781 27.998661 L 55.999777 27.998661 M 59.001563 27.998661 L 59.999107 27.998661 M 46.998996 29.000781 L 54.000112 29.000781 M 57.001897 29.000781 L 57.999442 29.000781 M 46.998996 29.998326 L 55.999777 29.998326 M 46.998996 31.000446 L 50.998326 31.000446 M 46.998996 31.997991 L 54.000112 31.997991 M 48.001116 33.000112 L 52.997991 33.000112 M 48.001116 34.002232 L 52.000446 34.002232 M 48.001116 34.999777 L 50.000781 34.999777 M 46.998996 36.001897 L 48.001116 36.001897 M 24.998103 36.999442 L 26.000223 36.999442 M 24.998103 38.001562 L 26.000223 38.001562 M 24.000558 38.999107 L 26.000223 38.999107 M 24.000558 40.001228 L 24.998103 40.001228 M 22.998438 40.998772 L 24.000558 40.998772 M 22.998438 49.002009 L 24.000558 49.002009 M 22.000893 49.999554 L 24.000558 49.999554 M 20.998772 51.001674 L 22.998438 51.001674 M 16.999442 51.999219 L 22.000893 51.999219 M 20.001228 53.001339 L 20.998772 53.001339 M 14.999777 53.998884 L 18.999107 53.998884 M 13.000112 55.001004 L 16.999442 55.001004 " transform="matrix(0.853659,0,0,0.853659,0,0.426829)"/>
<path style="fill-rule:nonzero;fill:rgb(0%,0%,0%);fill-opacity:1;stroke-width:1;stroke-linecap:butt;stroke-linejoin:miter;stroke:rgb(19.607843%,24.313725%,33.72549%);stroke-opacity:1;stroke-miterlimit:4;" d="M 63.998438 12.998884 L 65.000558 12.998884 M 63.000893 14.001004 L 65.000558 14.001004 M 63.000893 14.998549 L 65.000558 14.998549 M 61.998772 16.00067 L 63.998438 16.00067 M 61.998772 16.998214 L 63.000893 16.998214 M 61.001228 18.000335 L 63.000893 18.000335 M 59.999107 18.997879 L 61.998772 18.997879 M 59.001563 20 L 61.001228 20 M 57.999442 21.002121 L 59.999107 21.002121 M 57.999442 27.001116 L 59.999107 27.001116 M 55.999777 27.998661 L 59.001563 27.998661 M 54.000112 29.000781 L 57.001897 29.000781 " transform="matrix(0.853659,0,0,0.853659,0,0.426829)"/>
<path style="fill-rule:nonzero;fill:rgb(0%,0%,0%);fill-opacity:1;stroke-width:1;stroke-linecap:butt;stroke-linejoin:miter;stroke:rgb(9.019608%,6.666667%,9.019608%);stroke-opacity:1;stroke-miterlimit:4;" d="M 55.999777 16.00067 L 57.999442 16.00067 M 31.001674 16.998214 L 33.001339 16.998214 M 50.998326 16.998214 L 55.002232 16.998214 M 63.000893 16.998214 L 63.998438 16.998214 M 31.999219 18.000335 L 33.998884 18.000335 M 46.998996 18.000335 L 52.000446 18.000335 M 33.001339 18.997879 L 33.998884 18.997879 M 44.001786 18.997879 L 48.998661 18.997879 M 41 20 L 46.001451 20 M 24.998103 21.002121 L 26.000223 21.002121 M 39.000335 21.002121 L 46.998996 21.002121 M 37.00067 21.999665 L 37.998214 21.999665 M 42.999665 21.999665 L 48.998661 21.999665 M 52.000446 21.999665 L 52.997991 21.999665 M 26.000223 23.001786 L 26.997768 23.001786 M 35.001004 23.001786 L 35.998549 23.001786 M 41 23.001786 L 52.000446 23.001786 M 22.000893 23.99933 L 24.000558 23.99933 M 33.998884 23.99933 L 35.001004 23.99933 M 39.997879 23.99933 L 42.002121 23.99933 M 44.99933 23.99933 L 50.000781 23.99933 M 55.999777 23.99933 L 57.001897 23.99933 M 20.998772 25.001451 L 22.000893 25.001451 M 33.001339 25.001451 L 35.001004 25.001451 M 42.999665 25.001451 L 48.998661 25.001451 M 54.000112 25.001451 L 55.999777 25.001451 M 20.998772 25.998996 L 22.000893 25.998996 M 24.000558 25.998996 L 26.000223 25.998996 M 31.999219 25.998996 L 33.998884 25.998996 M 41 25.998996 L 48.001116 25.998996 M 22.000893 27.001116 L 24.998103 27.001116 M 31.001674 27.001116 L 33.001339 27.001116 M 42.002121 27.001116 L 52.000446 27.001116 M 22.000893 27.998661 L 24.000558 27.998661 M 29.999554 27.998661 L 31.999219 27.998661 M 42.999665 27.998661 L 50.000781 27.998661 M 22.000893 29.000781 L 24.000558 29.000781 M 29.999554 29.000781 L 31.001674 29.000781 M 44.001786 29.000781 L 46.998996 29.000781 M 57.999442 29.000781 L 59.001563 29.000781 M 22.000893 29.998326 L 22.998438 29.998326 M 29.002009 29.998326 L 29.999554 29.998326 M 41 29.998326 L 42.002121 29.998326 M 55.999777 29.998326 L 57.001897 29.998326 M 27.999888 31.000446 L 29.002009 31.000446 M 41 31.000446 L 42.999665 31.000446 M 50.998326 31.000446 L 52.997991 31.000446 M 18.001563 31.997991 L 18.999107 31.997991 M 27.999888 31.997991 L 29.002009 31.997991 M 31.999219 31.997991 L 33.001339 31.997991 M 42.002121 31.997991 L 44.001786 31.997991 M 18.001563 33.000112 L 18.999107 33.000112 M 22.000893 33.000112 L 22.998438 33.000112 M 26.997768 33.000112 L 27.999888 33.000112 M 31.001674 33.000112 L 33.001339 33.000112 M 42.999665 33.000112 L 44.001786 33.000112 M 52.997991 33.000112 L 54.000112 33.000112 M 18.001563 34.002232 L 18.999107 34.002232 M 26.997768 34.002232 L 27.999888 34.002232 M 31.001674 34.002232 L 33.001339 34.002232 M 18.001563 34.999777 L 20.998772 34.999777 M 26.000223 34.999777 L 26.997768 34.999777 M 29.999554 34.999777 L 31.999219 34.999777 M 18.001563 36.001897 L 22.000893 36.001897 M 26.000223 36.001897 L 26.997768 36.001897 M 18.999107 36.999442 L 20.998772 36.999442 M 20.001228 38.001562 L 20.998772 38.001562 M 35.998549 42.000893 L 37.998214 42.000893 M 20.998772 44.998103 L 22.000893 44.998103 M 20.001228 46.000223 L 20.998772 46.000223 M 26.997768 46.000223 L 27.999888 46.000223 M 18.999107 46.997768 L 20.001228 46.997768 M 26.997768 46.997768 L 27.999888 46.997768 M 18.001563 47.999888 L 18.999107 47.999888 M 22.000893 47.999888 L 22.998438 47.999888 M 26.000223 47.999888 L 26.997768 47.999888 M 16.999442 49.002009 L 18.001563 49.002009 M 20.001228 49.002009 L 22.998438 49.002009 M 24.000558 49.002009 L 24.998103 49.002009 M 29.002009 49.002009 L 31.001674 49.002009 M 16.001897 49.999554 L 22.000893 49.999554 M 26.000223 49.999554 L 31.001674 49.999554 M 14.999777 51.001674 L 20.998772 51.001674 M 24.998103 51.001674 L 26.000223 51.001674 M 29.999554 51.001674 L 31.001674 51.001674 M 13.000112 51.999219 L 16.999442 51.999219 M 24.000558 51.999219 L 26.000223 51.999219 M 52.997991 51.999219 L 55.999777 51.999219 M 11.000446 53.001339 L 20.001228 53.001339 M 22.998438 53.001339 L 24.000558 53.001339 M 9.998326 53.998884 L 14.999777 53.998884 M 20.998772 53.998884 L 22.998438 53.998884 M 24.000558 53.998884 L 24.998103 53.998884 M 27.999888 53.998884 L 29.002009 53.998884 M 16.999442 55.001004 L 20.998772 55.001004 M 27.999888 55.001004 L 29.002009 55.001004 M 26.997768 55.998549 L 27.999888 55.998549 M 26.000223 57.00067 L 27.999888 57.00067 M 24.000558 57.998214 L 26.997768 57.998214 M 31.001674 57.998214 L 31.999219 57.998214 M 22.000893 59.000335 L 26.000223 59.000335 M 29.002009 59.000335 L 31.999219 59.000335 M 24.000558 59.997879 L 29.002009 59.997879 M 31.001674 59.997879 L 31.999219 59.997879 M 31.001674 61 L 31.999219 61 M 31.001674 62.002121 L 31.999219 62.002121 M 29.999554 62.999665 L 31.001674 62.999665 M 29.999554 64.001786 L 31.001674 64.001786 M 52.997991 64.001786 L 54.000112 64.001786 M 33.001339 64.99933 L 33.998884 64.99933 M 46.998996 64.99933 L 48.001116 64.99933 M 31.999219 66.001451 L 33.998884 66.001451 M 42.002121 66.001451 L 42.999665 66.001451 M 46.998996 66.001451 L 48.998661 66.001451 M 50.998326 66.001451 L 52.000446 66.001451 M 31.999219 66.998996 L 33.001339 66.998996 M 35.998549 66.998996 L 37.00067 66.998996 M 37.998214 66.998996 L 39.000335 66.998996 M 42.002121 66.998996 L 44.001786 66.998996 M 46.998996 66.998996 L 48.998661 66.998996 M 33.998884 68.001116 L 37.00067 68.001116 M 37.998214 68.001116 L 39.997879 68.001116 M 42.999665 68.001116 L 44.001786 68.001116 M 48.001116 68.001116 L 48.998661 68.001116 M 50.000781 68.001116 L 50.998326 68.001116 M 35.001004 68.998661 L 37.00067 68.998661 M 37.998214 68.998661 L 39.997879 68.998661 M 48.998661 68.998661 L 50.000781 68.998661 M 52.000446 68.998661 L 52.997991 68.998661 M 55.002232 68.998661 L 55.999777 68.998661 M 35.001004 70.000781 L 37.00067 70.000781 M 37.998214 70.000781 L 39.997879 70.000781 M 41 70.000781 L 42.002121 70.000781 M 55.002232 70.000781 L 55.999777 70.000781 M 39.000335 70.998326 L 39.997879 70.998326 M 41 70.998326 L 42.999665 70.998326 M 42.002121 72.000446 L 42.999665 72.000446 M 55.999777 72.997991 L 57.001897 72.997991 M 55.002232 74.000112 L 55.999777 74.000112 M 44.001786 75.999777 L 44.99933 75.999777 " transform="matrix(0.853659,0,0,0.853659,0,0.426829)"/>
<path style="fill-rule:nonzero;fill:rgb(0%,0%,0%);fill-opacity:1;stroke-width:1;stroke-linecap:butt;stroke-linejoin:miter;stroke:rgb(96.862745%,100%,38.039216%);stroke-opacity:1;stroke-miterlimit:4;" d="M 29.002009 16.998214 L 29.999554 16.998214 M 24.000558 18.997879 L 24.998103 18.997879 M 24.000558 20 L 24.998103 20 " transform="matrix(0.853659,0,0,0.853659,0,0.426829)"/>
<path style="fill-rule:nonzero;fill:rgb(0%,0%,0%);fill-opacity:1;stroke-width:1;stroke-linecap:butt;stroke-linejoin:miter;stroke:rgb(73.333333%,78.431373%,37.647059%);stroke-opacity:1;stroke-miterlimit:4;" d="M 29.999554 16.998214 L 31.001674 16.998214 M 29.999554 18.000335 L 31.999219 18.000335 M 22.998438 20 L 24.000558 20 M 24.000558 21.002121 L 24.998103 21.002121 M 27.999888 23.001786 L 29.999554 23.001786 M 26.000223 23.99933 L 27.999888 23.99933 " transform="matrix(0.853659,0,0,0.853659,0,0.426829)"/>
<path style="fill-rule:nonzero;fill:rgb(0%,0%,0%);fill-opacity:1;stroke-width:1;stroke-linecap:butt;stroke-linejoin:miter;stroke:rgb(100%,100%,100%);stroke-opacity:1;stroke-miterlimit:4;" d="M 26.000223 18.000335 L 29.999554 18.000335 M 24.998103 18.997879 L 26.997768 18.997879 " transform="matrix(0.853659,0,0,0.853659,0,0.426829)"/>
<path style="fill-rule:nonzero;fill:rgb(0%,0%,0%);fill-opacity:1;stroke-width:1;stroke-linecap:butt;stroke-linejoin:miter;stroke:rgb(71.372549%,45.098039%,21.960784%);stroke-opacity:1;stroke-miterlimit:4;" d="M 26.997768 18.997879 L 27.999888 18.997879 M 29.999554 18.997879 L 31.001674 18.997879 M 24.998103 20 L 26.000223 20 M 31.001674 20 L 31.999219 20 M 22.998438 21.002121 L 24.000558 21.002121 M 26.997768 23.001786 L 27.999888 23.001786 " transform="matrix(0.853659,0,0,0.853659,0,0.426829)"/>
<path style="fill-rule:nonzero;fill:rgb(0%,0%,0%);fill-opacity:1;stroke-width:1;stroke-linecap:butt;stroke-linejoin:miter;stroke:rgb(56.078431%,19.607843%,8.627451%);stroke-opacity:1;stroke-miterlimit:4;" d="M 27.999888 18.997879 L 29.999554 18.997879 M 29.999554 21.002121 L 31.001674 21.002121 M 22.998438 21.999665 L 24.000558 21.999665 M 29.002009 21.999665 L 29.999554 21.999665 M 24.000558 23.001786 L 24.998103 23.001786 M 24.000558 23.99933 L 24.998103 23.99933 " transform="matrix(0.853659,0,0,0.853659,0,0.426829)"/>
<path style="fill-rule:nonzero;fill:rgb(0%,0%,0%);fill-opacity:1;stroke-width:1;stroke-linecap:butt;stroke-linejoin:miter;stroke:rgb(62.745098%,51.372549%,12.941176%);stroke-opacity:1;stroke-miterlimit:4;" d="M 31.001674 18.997879 L 33.001339 18.997879 M 31.999219 20 L 33.001339 20 M 31.001674 21.002121 L 31.999219 21.002121 M 24.000558 21.999665 L 26.000223 21.999665 M 29.999554 21.999665 L 31.001674 21.999665 M 24.998103 23.001786 L 26.000223 23.001786 M 24.998103 23.99933 L 26.000223 23.99933 " transform="matrix(0.853659,0,0,0.853659,0,0.426829)"/>
<path style="fill-rule:nonzero;fill:rgb(0%,0%,0%);fill-opacity:1;stroke-width:1;stroke-linecap:butt;stroke-linejoin:miter;stroke:rgb(32.156863%,4.705882%,4.705882%);stroke-opacity:1;stroke-miterlimit:4;" d="M 26.000223 20 L 27.999888 20 M 22.998438 23.001786 L 24.000558 23.001786 M 24.000558 25.001451 L 26.997768 25.001451 " transform="matrix(0.853659,0,0,0.853659,0,0.426829)"/>
<path style="fill-rule:nonzero;fill:rgb(0%,0%,0%);fill-opacity:1;stroke-width:1;stroke-linecap:butt;stroke-linejoin:miter;stroke:rgb(17.254902%,33.72549%,64.313725%);stroke-opacity:1;stroke-miterlimit:4;" d="M 14.002232 21.002121 L 14.999777 21.002121 M 14.002232 21.999665 L 14.999777 21.999665 M 13.000112 23.001786 L 14.999777 23.001786 M 13.000112 23.99933 L 14.002232 23.99933 M 13.000112 25.001451 L 14.002232 25.001451 M 13.000112 25.998996 L 14.002232 25.998996 M 14.999777 25.998996 L 16.001897 25.998996 M 13.000112 27.001116 L 14.002232 27.001116 M 14.999777 27.001116 L 16.001897 27.001116 M 13.000112 27.998661 L 14.002232 27.998661 M 14.002232 29.000781 L 14.999777 29.000781 M 14.002232 29.998326 L 14.999777 29.998326 M 16.001897 29.998326 L 16.999442 29.998326 M 14.999777 31.997991 L 16.001897 31.997991 M 16.999442 33.000112 L 18.001563 33.000112 M 16.001897 34.002232 L 18.001563 34.002232 M 16.999442 34.999777 L 18.001563 34.999777 M 18.999107 42.998438 L 20.001228 42.998438 M 18.001563 44.000558 L 20.998772 44.000558 M 16.999442 44.998103 L 18.001563 44.998103 M 18.999107 44.998103 L 20.998772 44.998103 M 16.001897 46.000223 L 16.999442 46.000223 M 18.999107 46.000223 L 20.001228 46.000223 M 14.999777 46.997768 L 16.001897 46.997768 M 18.001563 46.997768 L 18.999107 46.997768 M 14.002232 47.999888 L 14.999777 47.999888 M 16.999442 47.999888 L 18.001563 47.999888 M 13.000112 49.002009 L 14.002232 49.002009 M 13.000112 51.001674 L 14.002232 51.001674 M 7.001116 51.999219 L 7.998661 51.999219 M 7.001116 53.001339 L 9.998326 53.001339 M 18.001563 62.999665 L 20.001228 62.999665 M 20.001228 64.001786 L 24.000558 64.001786 M 22.000893 64.99933 L 29.002009 64.99933 M 26.997768 66.001451 L 31.001674 66.001451 " transform="matrix(0.853659,0,0,0.853659,0,0.426829)"/>
<path style="fill-rule:nonzero;fill:rgb(0%,0%,0%);fill-opacity:1;stroke-width:1;stroke-linecap:butt;stroke-linejoin:miter;stroke:rgb(33.333333%,60.784314%,85.098039%);stroke-opacity:1;stroke-miterlimit:4;" d="M 14.002232 23.99933 L 14.999777 23.99933 M 14.002232 25.001451 L 14.999777 25.001451 M 14.002232 25.998996 L 14.999777 25.998996 M 14.002232 27.001116 L 14.999777 27.001116 M 14.002232 27.998661 L 16.001897 27.998661 M 14.999777 31.000446 L 16.999442 31.000446 M 16.001897 31.997991 L 16.999442 31.997991 M 16.001897 33.000112 L 16.999442 33.000112 M 18.001563 44.998103 L 18.999107 44.998103 M 16.999442 46.000223 L 18.999107 46.000223 M 16.001897 46.997768 L 18.001563 46.997768 M 14.999777 47.999888 L 16.999442 47.999888 M 14.002232 49.002009 L 16.001897 49.002009 M 11.997991 49.999554 L 14.999777 49.999554 M 11.997991 51.001674 L 13.000112 51.001674 M 7.998661 51.999219 L 11.997991 51.999219 " transform="matrix(0.853659,0,0,0.853659,0,0.426829)"/>
<path style="fill-rule:nonzero;fill:rgb(0%,0%,0%);fill-opacity:1;stroke-width:1;stroke-linecap:butt;stroke-linejoin:miter;stroke:rgb(24.705882%,1.568627%,3.137255%);stroke-opacity:1;stroke-miterlimit:4;" d="M 35.001004 25.001451 L 39.000335 25.001451 M 33.998884 25.998996 L 39.997879 25.998996 M 33.001339 27.001116 L 39.000335 27.001116 M 31.999219 27.998661 L 37.00067 27.998661 M 39.997879 29.000781 L 41 29.000781 M 33.001339 29.998326 L 33.998884 29.998326 M 39.000335 29.998326 L 39.997879 29.998326 M 44.001786 29.998326 L 46.998996 29.998326 M 33.001339 31.000446 L 35.998549 31.000446 M 39.000335 31.000446 L 39.997879 31.000446 M 44.001786 31.000446 L 44.99933 31.000446 M 46.001451 31.000446 L 46.998996 31.000446 M 33.998884 31.997991 L 37.00067 31.997991 M 44.99933 31.997991 L 46.998996 31.997991 M 35.998549 33.000112 L 37.00067 33.000112 M 46.998996 33.000112 L 48.001116 33.000112 M 46.998996 34.002232 L 48.001116 34.002232 M 46.998996 34.999777 L 48.001116 34.999777 M 24.998103 40.998772 L 26.997768 40.998772 M 22.998438 42.000893 L 24.000558 42.000893 M 26.000223 42.000893 L 27.999888 42.000893 M 24.000558 42.998438 L 26.000223 42.998438 M 26.000223 44.000558 L 29.002009 44.000558 " transform="matrix(0.853659,0,0,0.853659,0,0.426829)"/>
<path style="fill:none;stroke-width:1;stroke-linecap:butt;stroke-linejoin:miter;stroke:rgb(31.764706%,31.372549%,39.607843%);stroke-opacity:1;stroke-miterlimit:4;" d="M 57.999442 25.998996 L 61.998772 25.998996 " transform="matrix(0.853659,0,0,0.853659,0,0.426829)"/>
<path style="fill-rule:nonzero;fill:rgb(0%,0%,0%);fill-opacity:1;stroke-width:1;stroke-linecap:butt;stroke-linejoin:miter;stroke:rgb(58.039216%,12.54902%,17.254902%);stroke-opacity:1;stroke-miterlimit:4;" d="M 39.000335 27.001116 L 39.997879 27.001116 M 37.00067 27.998661 L 39.997879 27.998661 M 33.001339 29.000781 L 37.00067 29.000781 M 33.998884 29.998326 L 35.001004 29.998326 M 39.997879 29.998326 L 41 29.998326 M 35.998549 31.000446 L 39.000335 31.000446 M 39.997879 31.000446 L 41 31.000446 M 44.99933 31.000446 L 46.001451 31.000446 M 33.001339 31.997991 L 33.998884 31.997991 M 37.00067 31.997991 L 37.998214 31.997991 M 39.000335 31.997991 L 42.002121 31.997991 M 33.001339 33.000112 L 33.998884 33.000112 M 35.001004 33.000112 L 35.998549 33.000112 M 39.997879 33.000112 L 41 33.000112 M 46.001451 33.000112 L 46.998996 33.000112 M 33.001339 34.002232 L 33.998884 34.002232 M 35.001004 34.002232 L 37.00067 34.002232 M 41 34.002232 L 42.002121 34.002232 M 26.997768 34.999777 L 27.999888 34.999777 M 35.998549 34.999777 L 37.00067 34.999777 M 41 34.999777 L 42.002121 34.999777 M 26.997768 36.001897 L 27.999888 36.001897 M 29.999554 36.001897 L 31.001674 36.001897 M 35.998549 36.001897 L 37.00067 36.001897 M 26.000223 36.999442 L 29.002009 36.999442 M 35.998549 36.999442 L 37.00067 36.999442 M 26.000223 38.001562 L 27.999888 38.001562 M 35.998549 38.001562 L 37.00067 38.001562 M 26.997768 38.999107 L 29.002009 38.999107 M 44.99933 38.999107 L 46.001451 38.999107 M 27.999888 40.001228 L 29.002009 40.001228 M 35.001004 40.998772 L 35.998549 40.998772 M 24.998103 42.000893 L 26.000223 42.000893 M 29.999554 42.000893 L 33.001339 42.000893 M 35.001004 42.000893 L 35.998549 42.000893 M 37.998214 42.000893 L 39.000335 42.000893 M 42.002121 42.000893 L 42.999665 42.000893 M 26.000223 42.998438 L 27.999888 42.998438 M 31.001674 42.998438 L 33.001339 42.998438 M 41 42.998438 L 42.002121 42.998438 M 31.001674 44.000558 L 33.001339 44.000558 M 31.001674 44.998103 L 31.999219 44.998103 M 39.997879 46.000223 L 41 46.000223 M 39.000335 46.997768 L 44.001786 46.997768 M 37.998214 47.999888 L 39.000335 47.999888 " transform="matrix(0.853659,0,0,0.853659,0,0.426829)"/>
<path style="fill-rule:nonzero;fill:rgb(0%,0%,0%);fill-opacity:1;stroke-width:1;stroke-linecap:butt;stroke-linejoin:miter;stroke:rgb(56.078431%,38.823529%,30.980392%);stroke-opacity:1;stroke-miterlimit:4;" d="M 39.997879 27.001116 L 41 27.001116 M 39.997879 27.998661 L 42.999665 27.998661 M 31.999219 29.000781 L 33.001339 29.000781 M 41 29.000781 L 42.999665 29.000781 M 31.001674 29.998326 L 33.001339 29.998326 M 29.999554 31.000446 L 33.001339 31.000446 M 29.002009 31.997991 L 31.001674 31.997991 M 29.002009 33.000112 L 29.999554 33.000112 M 29.002009 34.002232 L 29.999554 34.002232 M 46.001451 36.001897 L 46.998996 36.001897 M 46.001451 36.999442 L 48.001116 36.999442 M 46.001451 38.001562 L 50.000781 38.001562 M 46.998996 38.999107 L 48.001116 38.999107 M 50.998326 38.999107 L 52.000446 38.999107 M 46.998996 40.001228 L 48.998661 40.001228 M 27.999888 40.998772 L 29.999554 40.998772 M 48.001116 40.998772 L 48.998661 40.998772 M 27.999888 42.000893 L 29.999554 42.000893 M 50.000781 42.000893 L 50.998326 42.000893 M 52.997991 42.000893 L 54.000112 42.000893 M 27.999888 42.998438 L 31.001674 42.998438 M 42.002121 42.998438 L 42.999665 42.998438 M 50.998326 42.998438 L 52.997991 42.998438 M 29.002009 44.000558 L 29.999554 44.000558 M 42.999665 44.000558 L 44.001786 44.000558 M 29.002009 44.998103 L 29.999554 44.998103 M 31.999219 44.998103 L 33.001339 44.998103 M 42.999665 44.998103 L 44.001786 44.998103 M 29.999554 46.000223 L 31.999219 46.000223 M 39.000335 46.000223 L 39.997879 46.000223 M 29.999554 46.997768 L 31.001674 46.997768 M 31.999219 46.997768 L 33.001339 46.997768 M 35.998549 47.999888 L 37.00067 47.999888 M 46.998996 47.999888 L 52.000446 47.999888 M 26.000223 49.002009 L 29.002009 49.002009 M 31.001674 49.002009 L 31.999219 49.002009 M 35.001004 49.002009 L 35.998549 49.002009 M 46.001451 49.002009 L 48.998661 49.002009 M 52.000446 49.002009 L 55.002232 49.002009 M 33.001339 49.999554 L 35.001004 49.999554 M 39.000335 49.999554 L 41 49.999554 M 44.99933 49.999554 L 46.001451 49.999554 M 48.001116 49.999554 L 50.000781 49.999554 M 54.000112 49.999554 L 55.999777 49.999554 M 31.001674 51.001674 L 33.001339 51.001674 M 37.00067 51.001674 L 39.997879 51.001674 M 50.000781 51.001674 L 52.000446 51.001674 M 55.002232 51.001674 L 57.001897 51.001674 M 33.998884 51.999219 L 35.998549 51.999219 M 52.000446 51.999219 L 52.997991 51.999219 M 31.001674 53.001339 L 33.001339 53.001339 M 33.998884 53.001339 L 35.998549 53.001339 M 31.001674 53.998884 L 31.999219 53.998884 M 35.001004 53.998884 L 35.998549 53.998884 M 52.997991 53.998884 L 55.002232 53.998884 M 31.001674 55.001004 L 31.999219 55.001004 M 33.001339 55.001004 L 33.998884 55.001004 M 35.001004 55.001004 L 35.998549 55.001004 M 46.001451 55.001004 L 46.998996 55.001004 M 52.997991 55.001004 L 55.002232 55.001004 M 29.002009 55.998549 L 29.999554 55.998549 M 31.001674 55.998549 L 33.001339 55.998549 M 37.998214 55.998549 L 39.000335 55.998549 M 42.999665 55.998549 L 44.001786 55.998549 M 46.001451 55.998549 L 48.001116 55.998549 M 33.998884 57.00067 L 35.001004 57.00067 M 37.998214 57.00067 L 39.000335 57.00067 M 42.999665 57.00067 L 44.001786 57.00067 M 46.998996 57.00067 L 48.001116 57.00067 M 55.999777 57.00067 L 57.001897 57.00067 M 33.998884 57.998214 L 35.001004 57.998214 M 50.000781 57.998214 L 50.998326 57.998214 M 52.997991 57.998214 L 54.000112 57.998214 M 55.002232 57.998214 L 57.999442 57.998214 M 33.001339 59.000335 L 33.998884 59.000335 M 35.998549 59.000335 L 37.00067 59.000335 M 48.001116 59.000335 L 48.998661 59.000335 M 50.000781 59.000335 L 50.998326 59.000335 M 52.997991 59.000335 L 54.000112 59.000335 M 55.999777 59.000335 L 57.999442 59.000335 M 33.001339 59.997879 L 33.998884 59.997879 M 35.001004 59.997879 L 37.00067 59.997879 M 42.002121 59.997879 L 42.999665 59.997879 M 48.998661 59.997879 L 50.998326 59.997879 M 52.997991 59.997879 L 54.000112 59.997879 M 31.999219 61 L 35.998549 61 M 48.998661 61 L 52.000446 61 M 52.997991 61 L 54.000112 61 M 33.001339 62.002121 L 33.998884 62.002121 M 37.998214 62.002121 L 39.997879 62.002121 M 42.002121 62.002121 L 42.999665 62.002121 M 44.001786 62.002121 L 44.99933 62.002121 M 48.001116 62.002121 L 52.000446 62.002121 M 52.997991 62.002121 L 55.002232 62.002121 M 31.001674 62.999665 L 33.001339 62.999665 M 37.998214 62.999665 L 39.000335 62.999665 M 41 62.999665 L 44.001786 62.999665 M 44.99933 62.999665 L 46.001451 62.999665 M 48.001116 62.999665 L 50.000781 62.999665 M 50.998326 62.999665 L 52.000446 62.999665 M 54.000112 62.999665 L 55.002232 62.999665 M 31.001674 64.001786 L 31.999219 64.001786 M 33.998884 64.001786 L 35.001004 64.001786 M 35.998549 64.001786 L 37.998214 64.001786 M 41 64.001786 L 42.999665 64.001786 M 46.001451 64.001786 L 46.998996 64.001786 M 48.001116 64.001786 L 50.000781 64.001786 M 33.998884 64.99933 L 35.001004 64.99933 M 37.00067 64.99933 L 37.998214 64.99933 M 39.997879 64.99933 L 42.002121 64.99933 M 48.998661 64.99933 L 50.000781 64.99933 M 35.001004 66.001451 L 35.998549 66.001451 M 37.00067 66.001451 L 37.998214 66.001451 M 41 66.001451 L 42.002121 66.001451 M 37.00067 66.998996 L 37.998214 66.998996 M 44.99933 66.998996 L 46.001451 66.998996 M 44.99933 68.001116 L 46.001451 68.001116 M 42.002121 68.998661 L 42.999665 68.998661 M 44.99933 68.998661 L 46.998996 68.998661 M 42.002121 70.000781 L 42.999665 70.000781 M 44.99933 70.000781 L 48.001116 70.000781 M 50.998326 70.000781 L 55.002232 70.000781 M 42.999665 70.998326 L 44.001786 70.998326 M 44.99933 70.998326 L 46.998996 70.998326 M 48.001116 70.998326 L 52.997991 70.998326 M 42.999665 72.000446 L 48.001116 72.000446 M 50.000781 72.000446 L 52.997991 72.000446 M 55.002232 72.000446 L 57.001897 72.000446 M 44.001786 72.997991 L 46.001451 72.997991 M 46.998996 72.997991 L 48.001116 72.997991 M 54.000112 72.997991 L 55.999777 72.997991 M 42.002121 74.000112 L 42.999665 74.000112 M 44.99933 74.000112 L 46.001451 74.000112 M 48.001116 74.000112 L 50.000781 74.000112 M 52.000446 74.000112 L 55.002232 74.000112 M 42.002121 75.002232 L 44.001786 75.002232 M 44.99933 75.002232 L 46.998996 75.002232 M 42.999665 75.999777 L 44.001786 75.999777 M 46.001451 75.999777 L 48.001116 75.999777 M 55.002232 75.999777 L 55.999777 75.999777 M 46.001451 77.001897 L 50.000781 77.001897 M 54.000112 77.001897 L 55.002232 77.001897 M 48.001116 77.999442 L 52.000446 77.999442 " transform="matrix(0.853659,0,0,0.853659,0,0.426829)"/>
<path style="fill-rule:nonzero;fill:rgb(0%,0%,0%);fill-opacity:1;stroke-width:1;stroke-linecap:butt;stroke-linejoin:miter;stroke:rgb(34.901961%,22.352941%,20.784314%);stroke-opacity:1;stroke-miterlimit:4;" d="M 41 27.001116 L 42.002121 27.001116 M 31.001674 29.000781 L 31.999219 29.000781 M 42.999665 29.000781 L 44.001786 29.000781 M 29.999554 29.998326 L 31.001674 29.998326 M 42.999665 29.998326 L 44.001786 29.998326 M 42.999665 31.000446 L 44.001786 31.000446 M 27.999888 33.000112 L 29.002009 33.000112 M 27.999888 34.002232 L 29.002009 34.002232 M 29.999554 34.002232 L 31.001674 34.002232 M 27.999888 34.999777 L 29.999554 34.999777 M 27.999888 36.001897 L 29.999554 36.001897 M 50.000781 38.001562 L 54.000112 38.001562 M 26.000223 38.999107 L 26.997768 38.999107 M 52.000446 38.999107 L 52.997991 38.999107 M 26.000223 40.001228 L 27.999888 40.001228 M 26.997768 40.998772 L 27.999888 40.998772 M 48.998661 40.998772 L 50.000781 40.998772 M 52.000446 40.998772 L 55.002232 40.998772 M 48.998661 42.000893 L 50.000781 42.000893 M 54.000112 42.000893 L 55.002232 42.000893 M 50.000781 42.998438 L 50.998326 42.998438 M 52.997991 42.998438 L 54.000112 42.998438 M 50.998326 44.000558 L 52.000446 44.000558 M 52.000446 44.998103 L 52.997991 44.998103 M 27.999888 46.000223 L 29.999554 46.000223 M 46.001451 46.000223 L 50.000781 46.000223 M 52.997991 46.000223 L 55.002232 46.000223 M 27.999888 46.997768 L 29.002009 46.997768 M 31.001674 46.997768 L 31.999219 46.997768 M 48.001116 46.997768 L 52.000446 46.997768 M 55.002232 46.997768 L 57.999442 46.997768 M 26.997768 47.999888 L 27.999888 47.999888 M 29.999554 47.999888 L 31.999219 47.999888 M 37.00067 47.999888 L 37.998214 47.999888 M 57.001897 47.999888 L 57.999442 47.999888 M 24.998103 49.002009 L 26.000223 49.002009 M 35.998549 49.002009 L 37.00067 49.002009 M 55.002232 49.002009 L 57.001897 49.002009 M 35.001004 49.999554 L 37.00067 49.999554 M 55.999777 49.999554 L 57.001897 49.999554 M 26.000223 51.001674 L 27.999888 51.001674 M 29.002009 51.001674 L 29.999554 51.001674 M 35.001004 51.001674 L 35.998549 51.001674 M 57.001897 51.001674 L 57.999442 51.001674 M 26.000223 51.999219 L 27.999888 51.999219 M 29.002009 51.999219 L 33.001339 51.999219 M 55.999777 51.999219 L 57.999442 51.999219 M 24.998103 53.001339 L 26.997768 53.001339 M 27.999888 53.001339 L 29.002009 53.001339 M 29.999554 53.001339 L 31.001674 53.001339 M 54.000112 53.001339 L 55.002232 53.001339 M 24.998103 53.998884 L 26.000223 53.998884 M 29.999554 53.998884 L 31.001674 53.998884 M 33.998884 53.998884 L 35.001004 53.998884 M 55.002232 53.998884 L 55.999777 53.998884 M 24.000558 55.001004 L 26.000223 55.001004 M 26.997768 55.001004 L 27.999888 55.001004 M 33.998884 55.001004 L 35.001004 55.001004 M 55.002232 55.001004 L 55.999777 55.001004 M 22.998438 55.998549 L 24.998103 55.998549 M 27.999888 55.998549 L 29.002009 55.998549 M 33.001339 55.998549 L 35.001004 55.998549 M 55.999777 55.998549 L 57.001897 55.998549 M 22.000893 57.00067 L 26.000223 57.00067 M 31.001674 57.00067 L 31.999219 57.00067 M 33.001339 57.00067 L 33.998884 57.00067 M 57.001897 57.00067 L 57.999442 57.00067 M 22.000893 57.998214 L 24.000558 57.998214 M 26.997768 57.998214 L 27.999888 57.998214 M 29.999554 57.998214 L 31.001674 57.998214 M 31.999219 57.998214 L 33.998884 57.998214 M 26.000223 59.000335 L 26.997768 59.000335 M 31.999219 59.000335 L 33.001339 59.000335 M 54.000112 59.000335 L 55.002232 59.000335 M 31.999219 59.997879 L 33.001339 59.997879 M 42.999665 59.997879 L 44.001786 59.997879 M 54.000112 59.997879 L 57.001897 59.997879 M 37.00067 61 L 37.998214 61 M 42.002121 61 L 44.001786 61 M 55.002232 61 L 55.999777 61 M 33.998884 62.002121 L 35.001004 62.002121 M 37.00067 62.002121 L 37.998214 62.002121 M 42.999665 62.002121 L 44.001786 62.002121 M 55.002232 62.002121 L 55.999777 62.002121 M 33.001339 62.999665 L 35.001004 62.999665 M 37.00067 62.999665 L 37.998214 62.999665 M 44.001786 62.999665 L 44.99933 62.999665 M 52.997991 62.999665 L 54.000112 62.999665 M 31.999219 64.001786 L 33.998884 64.001786 M 37.998214 64.001786 L 39.000335 64.001786 M 44.001786 64.001786 L 46.001451 64.001786 M 31.001674 64.99933 L 33.001339 64.99933 M 35.001004 64.99933 L 37.00067 64.99933 M 37.998214 64.99933 L 39.000335 64.99933 M 42.999665 64.99933 L 46.998996 64.99933 M 48.001116 64.99933 L 48.998661 64.99933 M 50.998326 64.99933 L 52.000446 64.99933 M 33.998884 66.001451 L 35.001004 66.001451 M 35.998549 66.001451 L 37.00067 66.001451 M 37.998214 66.001451 L 39.000335 66.001451 M 39.997879 66.001451 L 41 66.001451 M 42.999665 66.001451 L 46.998996 66.001451 M 50.000781 66.001451 L 50.998326 66.001451 M 33.001339 66.998996 L 35.998549 66.998996 M 39.000335 66.998996 L 42.002121 66.998996 M 44.001786 66.998996 L 44.99933 66.998996 M 46.001451 66.998996 L 46.998996 66.998996 M 48.998661 66.998996 L 50.998326 66.998996 M 33.001339 68.001116 L 33.998884 68.001116 M 37.00067 68.001116 L 37.998214 68.001116 M 39.997879 68.001116 L 42.999665 68.001116 M 44.001786 68.001116 L 44.99933 68.001116 M 46.001451 68.001116 L 48.001116 68.001116 M 48.998661 68.001116 L 50.000781 68.001116 M 37.00067 68.998661 L 37.998214 68.998661 M 39.997879 68.998661 L 42.002121 68.998661 M 42.999665 68.998661 L 44.99933 68.998661 M 46.998996 68.998661 L 48.998661 68.998661 M 52.997991 68.998661 L 55.002232 68.998661 M 37.00067 70.000781 L 37.998214 70.000781 M 39.997879 70.000781 L 41 70.000781 M 42.999665 70.000781 L 44.99933 70.000781 M 48.001116 70.000781 L 50.998326 70.000781 M 39.997879 70.998326 L 41 70.998326 M 44.001786 70.998326 L 44.99933 70.998326 M 52.997991 70.998326 L 57.999442 70.998326 M 39.997879 72.000446 L 42.002121 72.000446 M 57.001897 72.000446 L 57.999442 72.000446 M 41 72.997991 L 44.001786 72.997991 M 42.999665 74.000112 L 44.99933 74.000112 M 44.001786 75.002232 L 44.99933 75.002232 M 44.99933 75.999777 L 46.001451 75.999777 M 42.999665 77.001897 L 44.001786 77.001897 M 46.998996 77.999442 L 48.001116 77.999442 M 52.000446 77.999442 L 52.997991 77.999442 " transform="matrix(0.853659,0,0,0.853659,0,0.426829)"/>
<path style="fill-rule:nonzero;fill:rgb(0%,0%,0%);fill-opacity:1;stroke-width:1;stroke-linecap:butt;stroke-linejoin:miter;stroke:rgb(54.509804%,93.72549%,100%);stroke-opacity:1;stroke-miterlimit:4;" d="M 14.999777 29.000781 L 16.001897 29.000781 M 14.999777 29.998326 L 16.001897 29.998326 M 9.998326 51.001674 L 11.997991 51.001674 " transform="matrix(0.853659,0,0,0.853659,0,0.426829)"/>
<path style="fill-rule:nonzero;fill:rgb(0%,0%,0%);fill-opacity:1;stroke-width:1;stroke-linecap:butt;stroke-linejoin:miter;stroke:rgb(78.039216%,31.372549%,25.490196%);stroke-opacity:1;stroke-miterlimit:4;" d="M 37.00067 29.000781 L 39.997879 29.000781 M 35.001004 29.998326 L 39.000335 29.998326 M 37.998214 31.997991 L 39.000335 31.997991 M 44.001786 31.997991 L 44.99933 31.997991 M 33.998884 33.000112 L 35.001004 33.000112 M 37.00067 33.000112 L 37.998214 33.000112 M 39.000335 33.000112 L 39.997879 33.000112 M 42.002121 33.000112 L 42.999665 33.000112 M 44.001786 33.000112 L 46.001451 33.000112 M 37.00067 34.002232 L 37.998214 34.002232 M 39.997879 34.002232 L 41 34.002232 M 42.999665 34.002232 L 44.99933 34.002232 M 46.001451 34.002232 L 46.998996 34.002232 M 31.999219 34.999777 L 33.998884 34.999777 M 35.001004 34.999777 L 35.998549 34.999777 M 37.00067 34.999777 L 37.998214 34.999777 M 42.002121 34.999777 L 42.999665 34.999777 M 46.001451 34.999777 L 46.998996 34.999777 M 31.001674 36.001897 L 33.998884 36.001897 M 35.001004 36.001897 L 35.998549 36.001897 M 37.00067 36.001897 L 37.998214 36.001897 M 41 36.001897 L 42.999665 36.001897 M 44.99933 36.001897 L 46.001451 36.001897 M 29.999554 36.999442 L 33.001339 36.999442 M 35.001004 36.999442 L 35.998549 36.999442 M 42.002121 36.999442 L 44.001786 36.999442 M 27.999888 38.001562 L 29.002009 38.001562 M 35.001004 38.001562 L 35.998549 38.001562 M 42.002121 38.001562 L 46.001451 38.001562 M 29.002009 38.999107 L 29.999554 38.999107 M 33.998884 38.999107 L 35.001004 38.999107 M 37.998214 38.999107 L 39.000335 38.999107 M 42.999665 38.999107 L 44.99933 38.999107 M 33.998884 40.001228 L 35.001004 40.001228 M 42.002121 40.998772 L 42.999665 40.998772 M 37.998214 42.998438 L 41 42.998438 " transform="matrix(0.853659,0,0,0.853659,0,0.426829)"/>
<path style="fill-rule:nonzero;fill:rgb(0%,0%,0%);fill-opacity:1;stroke-width:1;stroke-linecap:butt;stroke-linejoin:miter;stroke:rgb(67.45098%,44.705882%,51.372549%);stroke-opacity:1;stroke-miterlimit:4;" d="M 42.002121 29.998326 L 42.999665 29.998326 M 31.001674 31.997991 L 31.999219 31.997991 M 29.999554 33.000112 L 31.001674 33.000112 M 46.001451 38.999107 L 46.998996 38.999107 M 48.001116 38.999107 L 50.998326 38.999107 M 46.001451 40.001228 L 46.998996 40.001228 M 48.998661 40.001228 L 50.998326 40.001228 M 44.001786 40.998772 L 44.99933 40.998772 M 46.001451 40.998772 L 48.001116 40.998772 M 42.999665 42.000893 L 44.99933 42.000893 M 48.001116 42.000893 L 48.998661 42.000893 M 50.998326 42.000893 L 52.997991 42.000893 M 35.001004 42.998438 L 37.00067 42.998438 M 42.999665 42.998438 L 44.001786 42.998438 M 48.998661 42.998438 L 50.000781 42.998438 M 29.999554 44.000558 L 31.001674 44.000558 M 33.998884 44.000558 L 35.998549 44.000558 M 39.000335 44.000558 L 39.997879 44.000558 M 42.002121 44.000558 L 42.999665 44.000558 M 44.001786 44.000558 L 46.001451 44.000558 M 50.000781 44.000558 L 50.998326 44.000558 M 29.999554 44.998103 L 31.001674 44.998103 M 33.001339 44.998103 L 35.001004 44.998103 M 39.000335 44.998103 L 42.999665 44.998103 M 44.99933 44.998103 L 46.998996 44.998103 M 50.998326 44.998103 L 52.000446 44.998103 M 31.999219 46.000223 L 33.998884 46.000223 M 37.998214 46.000223 L 39.000335 46.000223 M 29.002009 46.997768 L 29.999554 46.997768 M 37.00067 46.997768 L 39.000335 46.997768 M 27.999888 47.999888 L 29.999554 47.999888 M 31.999219 47.999888 L 33.001339 47.999888 M 35.001004 47.999888 L 35.998549 47.999888 M 31.999219 49.002009 L 33.001339 49.002009 M 33.998884 49.002009 L 35.001004 49.002009 M 48.998661 49.002009 L 52.000446 49.002009 M 31.001674 49.999554 L 33.001339 49.999554 M 42.999665 49.999554 L 44.001786 49.999554 M 46.001451 49.999554 L 48.001116 49.999554 M 50.000781 49.999554 L 54.000112 49.999554 M 35.998549 51.001674 L 37.00067 51.001674 M 39.997879 51.001674 L 41 51.001674 M 46.001451 51.001674 L 48.001116 51.001674 M 48.998661 51.001674 L 50.000781 51.001674 M 52.000446 51.001674 L 55.002232 51.001674 M 35.998549 51.999219 L 39.000335 51.999219 M 46.998996 51.999219 L 48.001116 51.999219 M 50.000781 51.999219 L 52.000446 51.999219 M 33.001339 53.001339 L 33.998884 53.001339 M 35.998549 53.001339 L 37.00067 53.001339 M 48.001116 53.001339 L 48.998661 53.001339 M 50.998326 53.001339 L 54.000112 53.001339 M 31.999219 53.998884 L 33.998884 53.998884 M 46.001451 53.998884 L 46.998996 53.998884 M 48.998661 53.998884 L 52.997991 53.998884 M 31.999219 55.001004 L 33.001339 55.001004 M 37.00067 55.001004 L 37.998214 55.001004 M 48.998661 55.001004 L 50.000781 55.001004 M 50.998326 55.001004 L 52.997991 55.001004 M 35.001004 55.998549 L 37.998214 55.998549 M 42.002121 55.998549 L 42.999665 55.998549 M 44.99933 55.998549 L 46.001451 55.998549 M 48.998661 55.998549 L 50.000781 55.998549 M 52.000446 55.998549 L 54.000112 55.998549 M 35.001004 57.00067 L 37.00067 57.00067 M 39.997879 57.00067 L 42.002121 57.00067 M 44.99933 57.00067 L 46.001451 57.00067 M 48.001116 57.00067 L 50.000781 57.00067 M 52.000446 57.00067 L 54.000112 57.00067 M 35.001004 57.998214 L 35.998549 57.998214 M 37.998214 57.998214 L 41 57.998214 M 42.999665 57.998214 L 44.99933 57.998214 M 46.998996 57.998214 L 50.000781 57.998214 M 52.000446 57.998214 L 52.997991 57.998214 M 33.998884 59.000335 L 35.998549 59.000335 M 37.00067 59.000335 L 41 59.000335 M 42.002121 59.000335 L 42.999665 59.000335 M 44.001786 59.000335 L 44.99933 59.000335 M 46.998996 59.000335 L 48.001116 59.000335 M 48.998661 59.000335 L 50.000781 59.000335 M 50.998326 59.000335 L 52.997991 59.000335 M 33.998884 59.997879 L 35.001004 59.997879 M 37.00067 59.997879 L 37.998214 59.997879 M 39.000335 59.997879 L 42.002121 59.997879 M 44.001786 59.997879 L 48.001116 59.997879 M 50.998326 59.997879 L 52.997991 59.997879 M 35.998549 61 L 37.00067 61 M 39.000335 61 L 39.997879 61 M 44.001786 61 L 48.001116 61 M 52.000446 61 L 52.997991 61 M 31.999219 62.002121 L 33.001339 62.002121 M 35.001004 62.002121 L 37.00067 62.002121 M 39.997879 62.002121 L 41 62.002121 M 44.99933 62.002121 L 48.001116 62.002121 M 35.001004 62.999665 L 37.00067 62.999665 M 39.000335 62.999665 L 41 62.999665 M 46.001451 62.999665 L 48.001116 62.999665 M 35.001004 64.001786 L 35.998549 64.001786 M 39.000335 64.001786 L 41 64.001786 M 46.998996 64.001786 L 48.001116 64.001786 M 46.998996 70.998326 L 48.001116 70.998326 M 48.001116 72.000446 L 50.000781 72.000446 M 52.997991 72.000446 L 55.002232 72.000446 M 46.001451 72.997991 L 46.998996 72.997991 M 48.001116 72.997991 L 50.998326 72.997991 M 52.997991 72.997991 L 54.000112 72.997991 M 46.001451 74.000112 L 48.001116 74.000112 M 50.000781 74.000112 L 52.000446 74.000112 M 46.998996 75.002232 L 48.998661 75.002232 M 50.998326 75.002232 L 52.997991 75.002232 M 48.001116 75.999777 L 50.000781 75.999777 M 52.997991 75.999777 L 55.002232 75.999777 M 50.000781 77.001897 L 54.000112 77.001897 " transform="matrix(0.853659,0,0,0.853659,0,0.426829)"/>
<path style="fill:none;stroke-width:1;stroke-linecap:butt;stroke-linejoin:miter;stroke:rgb(35.294118%,9.411765%,12.156863%);stroke-opacity:1;stroke-miterlimit:4;" d="M 29.002009 31.000446 L 29.999554 31.000446 " transform="matrix(0.853659,0,0,0.853659,0,0.426829)"/>
<path style="fill-rule:nonzero;fill:rgb(0%,0%,0%);fill-opacity:1;stroke-width:1;stroke-linecap:butt;stroke-linejoin:miter;stroke:rgb(90.196078%,45.098039%,33.72549%);stroke-opacity:1;stroke-miterlimit:4;" d="M 37.998214 33.000112 L 39.000335 33.000112 M 41 33.000112 L 42.002121 33.000112 M 33.998884 34.002232 L 35.001004 34.002232 M 37.998214 34.002232 L 39.997879 34.002232 M 42.002121 34.002232 L 42.999665 34.002232 M 33.998884 34.999777 L 35.001004 34.999777 M 37.998214 34.999777 L 39.000335 34.999777 M 33.998884 36.001897 L 35.001004 36.001897 M 42.999665 36.001897 L 44.99933 36.001897 M 44.001786 36.999442 L 46.001451 36.999442 M 29.002009 38.001562 L 31.001674 38.001562 M 33.998884 38.001562 L 35.001004 38.001562 M 29.999554 38.999107 L 31.001674 38.999107 M 31.999219 40.001228 L 33.998884 40.001228 " transform="matrix(0.853659,0,0,0.853659,0,0.426829)"/>
<path style="fill-rule:nonzero;fill:rgb(0%,0%,0%);fill-opacity:1;stroke-width:1;stroke-linecap:butt;stroke-linejoin:miter;stroke:rgb(100%,60.784314%,44.705882%);stroke-opacity:1;stroke-miterlimit:4;" d="M 44.99933 34.002232 L 46.001451 34.002232 M 39.000335 34.999777 L 41 34.999777 M 42.999665 34.999777 L 46.001451 34.999777 M 37.998214 36.001897 L 41 36.001897 M 33.001339 36.999442 L 35.001004 36.999442 M 37.998214 36.999442 L 39.997879 36.999442 M 33.001339 38.001562 L 33.998884 38.001562 M 31.001674 38.999107 L 33.998884 38.999107 M 37.00067 38.999107 L 37.998214 38.999107 M 37.00067 40.001228 L 37.998214 40.001228 " transform="matrix(0.853659,0,0,0.853659,0,0.426829)"/>
<path style="fill-rule:nonzero;fill:rgb(0%,0%,0%);fill-opacity:1;stroke-width:1;stroke-linecap:butt;stroke-linejoin:miter;stroke:rgb(67.45098%,29.803922%,37.254902%);stroke-opacity:1;stroke-miterlimit:4;" d="M 29.002009 36.999442 L 29.999554 36.999442 M 37.00067 36.999442 L 37.998214 36.999442 M 37.00067 38.001562 L 37.998214 38.001562 M 35.001004 38.999107 L 37.00067 38.999107 M 24.998103 40.001228 L 26.000223 40.001228 M 29.002009 40.001228 L 31.999219 40.001228 M 35.001004 40.001228 L 37.00067 40.001228 M 42.999665 40.001228 L 46.001451 40.001228 M 24.000558 40.998772 L 24.998103 40.998772 M 29.999554 40.998772 L 35.001004 40.998772 M 35.998549 40.998772 L 37.00067 40.998772 M 42.999665 40.998772 L 44.001786 40.998772 M 24.000558 42.000893 L 24.998103 42.000893 M 33.001339 42.000893 L 35.001004 42.000893 M 33.001339 42.998438 L 35.001004 42.998438 M 37.00067 42.998438 L 37.998214 42.998438 M 33.001339 44.000558 L 33.998884 44.000558 M 44.001786 44.998103 L 44.99933 44.998103 M 41 46.000223 L 46.001451 46.000223 M 44.001786 46.997768 L 46.998996 46.997768 M 39.000335 47.999888 L 41 47.999888 M 44.99933 47.999888 L 46.998996 47.999888 M 37.00067 49.002009 L 39.000335 49.002009 M 42.999665 49.002009 L 46.001451 49.002009 M 37.00067 49.999554 L 39.000335 49.999554 " transform="matrix(0.853659,0,0,0.853659,0,0.426829)"/>
<path style="fill-rule:nonzero;fill:rgb(0%,0%,0%);fill-opacity:1;stroke-width:1;stroke-linecap:butt;stroke-linejoin:miter;stroke:rgb(100%,48.235294%,35.686275%);stroke-opacity:1;stroke-miterlimit:4;" d="M 39.997879 36.999442 L 42.002121 36.999442 M 39.000335 38.001562 L 39.997879 38.001562 M 41 38.001562 L 42.002121 38.001562 M 39.000335 38.999107 L 42.999665 38.999107 M 39.000335 40.001228 L 42.002121 40.001228 " transform="matrix(0.853659,0,0,0.853659,0,0.426829)"/>
<path style="fill:none;stroke-width:1;stroke-linecap:butt;stroke-linejoin:miter;stroke:rgb(100%,74.901961%,64.705882%);stroke-opacity:1;stroke-miterlimit:4;" d="M 31.001674 38.001562 L 33.001339 38.001562 M 39.997879 38.001562 L 41 38.001562 " transform="matrix(0.853659,0,0,0.853659,0,0.426829)"/>
<path style="fill-rule:nonzero;fill:rgb(0%,0%,0%);fill-opacity:1;stroke-width:1;stroke-linecap:butt;stroke-linejoin:miter;stroke:rgb(98.039216%,42.745098%,32.941176%);stroke-opacity:1;stroke-miterlimit:4;" d="M 37.998214 38.001562 L 39.000335 38.001562 M 37.998214 40.001228 L 39.000335 40.001228 M 37.00067 40.998772 L 37.998214 40.998772 M 41 47.999888 L 44.99933 47.999888 M 39.000335 49.002009 L 41 49.002009 " transform="matrix(0.853659,0,0,0.853659,0,0.426829)"/>
<path style="fill-rule:nonzero;fill:rgb(0%,0%,0%);fill-opacity:1;stroke-width:1;stroke-linecap:butt;stroke-linejoin:miter;stroke:rgb(93.333333%,29.019608%,16.862745%);stroke-opacity:1;stroke-miterlimit:4;" d="M 42.002121 40.001228 L 42.999665 40.001228 M 37.998214 40.998772 L 42.002121 40.998772 M 39.000335 42.000893 L 42.002121 42.000893 " transform="matrix(0.853659,0,0,0.853659,0,0.426829)"/>
<path style="fill-rule:nonzero;fill:rgb(0%,0%,0%);fill-opacity:1;stroke-width:1;stroke-linecap:butt;stroke-linejoin:miter;stroke:rgb(92.54902%,71.764706%,57.647059%);stroke-opacity:1;stroke-miterlimit:4;" d="M 44.99933 40.998772 L 46.001451 40.998772 M 44.99933 42.000893 L 48.001116 42.000893 M 46.001451 42.998438 L 48.998661 42.998438 M 35.998549 44.000558 L 37.998214 44.000558 M 35.998549 44.998103 L 37.998214 44.998103 M 35.001004 46.000223 L 37.998214 46.000223 M 35.001004 46.997768 L 37.00067 46.997768 M 41 49.002009 L 42.999665 49.002009 M 42.002121 51.001674 L 46.001451 51.001674 M 39.000335 51.999219 L 46.998996 51.999219 M 37.998214 53.001339 L 44.001786 53.001339 M 46.001451 53.001339 L 48.001116 53.001339 M 37.998214 53.998884 L 39.997879 53.998884 M 41 53.998884 L 42.999665 53.998884 M 37.998214 55.001004 L 39.000335 55.001004 M 41 55.001004 L 42.999665 55.001004 M 44.001786 55.001004 L 46.001451 55.001004 M 41 55.998549 L 42.002121 55.998549 M 44.001786 55.998549 L 44.99933 55.998549 M 44.001786 57.00067 L 44.99933 57.00067 " transform="matrix(0.853659,0,0,0.853659,0,0.426829)"/>
<path style="fill-rule:nonzero;fill:rgb(0%,0%,0%);fill-opacity:1;stroke-width:1;stroke-linecap:butt;stroke-linejoin:miter;stroke:rgb(81.960784%,57.647059%,40.784314%);stroke-opacity:1;stroke-miterlimit:4;" d="M 44.001786 42.998438 L 46.001451 42.998438 M 37.998214 44.000558 L 39.000335 44.000558 M 39.997879 44.000558 L 42.002121 44.000558 M 46.001451 44.000558 L 50.000781 44.000558 M 35.001004 44.998103 L 35.998549 44.998103 M 37.998214 44.998103 L 39.000335 44.998103 M 46.998996 44.998103 L 50.998326 44.998103 M 33.998884 46.000223 L 35.001004 46.000223 M 33.001339 46.997768 L 35.001004 46.997768 M 33.001339 47.999888 L 35.001004 47.999888 M 33.001339 49.002009 L 33.998884 49.002009 M 41 49.999554 L 42.999665 49.999554 M 44.001786 49.999554 L 44.99933 49.999554 M 41 51.001674 L 42.002121 51.001674 M 48.001116 51.001674 L 48.998661 51.001674 M 48.001116 51.999219 L 50.000781 51.999219 M 37.00067 53.001339 L 37.998214 53.001339 M 44.001786 53.001339 L 46.001451 53.001339 M 48.998661 53.001339 L 50.998326 53.001339 M 35.998549 53.998884 L 37.998214 53.998884 M 39.997879 53.998884 L 41 53.998884 M 42.999665 53.998884 L 46.001451 53.998884 M 46.998996 53.998884 L 48.998661 53.998884 M 35.998549 55.001004 L 37.00067 55.001004 M 39.000335 55.001004 L 41 55.001004 M 42.999665 55.001004 L 44.001786 55.001004 M 46.998996 55.001004 L 48.998661 55.001004 M 50.000781 55.001004 L 50.998326 55.001004 M 39.000335 55.998549 L 41 55.998549 M 48.001116 55.998549 L 48.998661 55.998549 M 50.000781 55.998549 L 52.000446 55.998549 M 37.00067 57.00067 L 37.998214 57.00067 M 39.000335 57.00067 L 39.997879 57.00067 M 42.002121 57.00067 L 42.999665 57.00067 M 46.001451 57.00067 L 46.998996 57.00067 M 50.998326 57.00067 L 52.000446 57.00067 M 35.998549 57.998214 L 37.998214 57.998214 M 41 57.998214 L 42.999665 57.998214 M 44.99933 57.998214 L 46.998996 57.998214 M 41 59.000335 L 42.002121 59.000335 M 44.99933 59.000335 L 46.998996 59.000335 M 50.998326 72.997991 L 52.997991 72.997991 M 48.998661 75.002232 L 50.998326 75.002232 M 50.000781 75.999777 L 52.997991 75.999777 " transform="matrix(0.853659,0,0,0.853659,0,0.426829)"/>
<path style="fill-rule:nonzero;fill:rgb(0%,0%,0%);fill-opacity:1;stroke-width:1;stroke-linecap:butt;stroke-linejoin:miter;stroke:rgb(55.686275%,30.980392%,22.745098%);stroke-opacity:1;stroke-miterlimit:4;" d="M 50.000781 46.000223 L 52.997991 46.000223 M 46.998996 46.997768 L 48.001116 46.997768 M 52.000446 46.997768 L 55.002232 46.997768 M 52.000446 47.999888 L 57.001897 47.999888 M 27.999888 51.001674 L 29.002009 51.001674 M 33.001339 51.001674 L 35.001004 51.001674 M 27.999888 51.999219 L 29.002009 51.999219 M 33.001339 51.999219 L 33.998884 51.999219 M 26.997768 53.001339 L 27.999888 53.001339 M 29.002009 53.001339 L 29.999554 53.001339 M 26.000223 53.998884 L 27.999888 53.998884 M 29.002009 53.998884 L 29.999554 53.998884 M 26.000223 55.001004 L 26.997768 55.001004 M 29.002009 55.001004 L 31.001674 55.001004 M 24.998103 55.998549 L 26.997768 55.998549 M 29.999554 55.998549 L 31.001674 55.998549 M 54.000112 55.998549 L 55.999777 55.998549 M 27.999888 57.00067 L 31.001674 57.00067 M 31.999219 57.00067 L 33.001339 57.00067 M 50.000781 57.00067 L 50.998326 57.00067 M 54.000112 57.00067 L 55.999777 57.00067 M 27.999888 57.998214 L 29.999554 57.998214 M 50.998326 57.998214 L 52.000446 57.998214 M 54.000112 57.998214 L 55.002232 57.998214 M 26.997768 59.000335 L 29.002009 59.000335 M 42.999665 59.000335 L 44.001786 59.000335 M 55.002232 59.000335 L 55.999777 59.000335 M 57.999442 59.000335 L 59.001563 59.000335 M 37.998214 59.997879 L 39.000335 59.997879 M 48.001116 59.997879 L 48.998661 59.997879 M 37.998214 61 L 39.000335 61 M 39.997879 61 L 42.002121 61 M 48.001116 61 L 48.998661 61 M 54.000112 61 L 55.002232 61 M 41 62.002121 L 42.002121 62.002121 M 52.000446 62.002121 L 52.997991 62.002121 M 50.000781 62.999665 L 50.998326 62.999665 M 52.000446 62.999665 L 52.997991 62.999665 M 42.999665 64.001786 L 44.001786 64.001786 M 50.000781 64.001786 L 52.997991 64.001786 M 39.000335 64.99933 L 39.997879 64.99933 M 42.002121 64.99933 L 42.999665 64.99933 M 50.000781 64.99933 L 50.998326 64.99933 M 52.000446 64.99933 L 52.997991 64.99933 M 39.000335 66.001451 L 39.997879 66.001451 M 48.998661 66.001451 L 50.000781 66.001451 " transform="matrix(0.853659,0,0,0.853659,0,0.426829)"/>
</g>
</svg>
