<svg xmlns="http://www.w3.org/2000/svg" viewBox="0 -0.5 82 82" shape-rendering="crispEdges"><path stroke="#1e1660" d="M57 1h2m-4 1h2m1 0h1m-7 1h3m3 0h1m-9 1h2M40 6h1m-1 1h1M19 8h1m19 0h2M19 9h1m15 0h4m-21 1h1m46 0h1m-48 1h1m44 0h2m-48 1h1m43 0h2m-46 1h1m38 0h5m-44 1h1m35 0h3m-40 1h1m30 0h6m-37 1h1m26 0h4m-31 1h1m-1 1h1m-2 1h3m-3 1h3m-3 1h4m-4 1h4m-4 1h4m3 0h1m-8 1h5m1 0h1m6 0h1m-14 1h5m7 0h1m-12 1h5m5 0h1m-11 1h4m-4 1h4m4 0h1m-9 1h3m5 0h1m-8 1h2m4 0h1m-7 1h2m4 0h1m-7 1h1m4 2h1m-1 1h1m-2 2h1m-1 1h1m-2 3h1m37 1h10m-46 1h1m33 0h2m-37 1h1m36 2h2m-2 1h1m5 0h1m-2 1h1m-48 1h1m49 0h1m-52 1h1m8 0h2m39 0h1m-52 1h1m8 0h2m-13 1h1m9 0h2m-14 1h1m10 0h2M8 54h2m9 0h2m-11 1h3m43 0h2m-1 1h1m0 1h1m-39 3h4m5 0h2m-13 1h13m-14 1h14m-11 1h10m-6 1h6m-1 1h1m-4 1h1"/><path stroke="#7d76ae" d="M57 2h1m-3 1h3M41 4h6m5 0h4M42 5h4m5 0h2m-9 1h6m-6 1h2m-2 1h2m-7 1h3m3 0h2m-4 1h4m-5 1h2m2 0h2m-18 1h9m7 0h1m-7 1h1m-4 1h1m-4 1h1m-3 1h1m2 0h1"/><path stroke="#544c8f" d="M41 3h1m3 0h2m-7 1h1m6 0h3m6 0h1M40 5h1m13 0h1M20 7h1m6 1h2m0 1h6m-16 1h1m-1 1h1m6 0h1m17 0h2m-28 1h2m7 0h2m10 0h5m19 0h2m-47 1h2m8 0h12m21 0h3m-46 1h2m8 0h9m19 0h6m-45 1h4m8 0h5m19 0h5m-41 1h4m9 0h2m15 0h8m-38 1h5m18 0h3m2 0h5m-33 1h5m15 0h3m4 0h2m-28 1h4m12 0h3m-19 1h5m10 0h1m-15 1h4m-4 1h4m-4 1h3m-2 1h1m12 0h1m-14 1h1m11 0h1m-2 1h1m-7 1h2m3 0h1m-6 1h1m-1 1h1m3 0h1m-6 1h1m3 0h1m-5 1h1m-2 1h1m3 0h1m-5 1h1m2 1h1m-4 1h1m-2 1h4m-4 1h3m-3 1h3m-4 1h3m-3 1h3m-3 1h2m-3 1h3m-3 1h2m32 1h1m-2 1h1m1 1h1m1 0h1m2 0h2m-3 1h2m-3 1h2m-3 1h2m3 0h4m-9 1h4m-3 1h1m1 1h1m-6 1h5m-4 1h3"/><path stroke="#9160ae" d="M42 3h3m-4 2h1m-1 1h3M21 7h3m17 0h3M20 8h1m1 0h5m14 0h3M20 9h1m2 0h6m13 0h3m-21 1h6m-5 1h1m1 0h6m8 0h1m-16 1h1m2 0h1m-10 1h1m6 0h1m-8 1h1m6 0h1m-7 1h1m6 0h1m-8 1h1m6 0h2m13 1h2m-23 1h1m17 0h4m-22 1h1m14 0h5m-8 1h6m-5 1h3m-3 1h1m-2 1h1m-9 5h1m2 0h1m-4 1h1m-2 1h3m-3 1h3m-4 1h3m-3 1h3m-4 1h3m-2 1h2m32 8h1m7 0h1m-12 1h1m9 0h2m-13 1h5m-3 1h1m4 1h1m-2 1h1m-2 1h3m-1 1h3m-5 1h4m-5 1h2"/><path stroke="#000" d="M57 4h1m-3 1h2m-4 1h2m-4 1h2m-7 1h5m-4 1h1m-1 1h1m18 0h1m-19 1h1m17 0h1m-20 1h2m17 0h1m-23 1h3m18 0h1m-25 1h3m21 0h1m-28 1h3m24 0h1m-30 1h2m26 0h1m-50 1h1m17 0h3m28 0h1m-50 1h1m18 0h1m28 0h1m-50 1h1m47 0h1m-49 1h1m46 0h1m-49 1h1m46 0h1m-48 1h1m24 0h5m16 0h1m-48 1h1m23 0h5m17 0h1m-47 1h1m22 0h5m2 0h3m12 0h1m-46 1h1m26 0h4m13 0h7m-51 1h1m27 0h1m21 0h1m-51 1h1m7 0h2m39 0h1m-50 1h1m7 0h2m38 0h1m-48 1h1m5 0h3m37 0h1m-47 1h1m5 0h3m35 0h2m-45 1h1m4 0h4m30 0h4m-43 1h1m4 0h4m31 0h1m-40 1h1m3 0h3m32 0h1m-40 1h1m3 0h3m30 0h2m-38 1h1m4 0h1m28 0h2m-35 1h1m30 0h2m-32 1h1m29 0h2m-31 1h1m0 1h1m-1 1h1m30 0h1m-33 1h1m30 0h2m-33 1h1m-2 1h1m4 0h1m30 0h2m11 0h1m-51 1h1m4 0h4m26 0h2m13 0h1m-52 1h1m5 0h7m37 0h1m-52 1h1m5 0h6m38 0h1m-52 1h1m5 0h7m-14 1h1m5 0h3m1 0h3m-14 1h1m5 0h2m-10 1h2m-6 1h4m54 0h1M6 52h1m56 0h1M6 53h1m17 0h1m37 0h1M7 54h1m15 0h1m37 0h1M8 55h2m11 0h3m36 0h1m-51 1h11m1 0h1m36 0h1m-39 1h1m37 0h1m-39 1h1m36 0h1m-39 1h2m37 0h1m-42 1h2m37 0h3m-43 1h1m38 0h1m-41 1h1m39 0h1m-41 1h2m37 0h1m-38 1h2m34 0h2m-36 1h2m8 0h1m22 0h1m-32 1h4m5 0h1m20 0h2m-28 1h6m19 0h1m-20 1h1m18 0h1m-20 1h3m15 0h2m-17 2h4m0 1h1m0 1h1m0 1h1m-1 1h1m11 0h3m-14 1h1m13 0h1m-15 1h1m1 0h2m9 0h1m-14 1h2m2 0h1m6 0h2m-8 1h6"/><path stroke="#6679c7" d="M46 5h5"/><path stroke="#f0b0f4" d="M53 5h1m-7 2h2m1 0h1m-7 5h1m-3 1h1m-8 2h2m23 28h2m3 2h1m-4 2h1m0 4h1m-5 4h1"/><path stroke="#f8d0f1" d="M50 6h3m-4 1h1m-26 6h1m16 0h1m-18 1h2m12 0h3m-16 1h1m11 0h1m-7 7h2m-3 1h2m32 23h1m-2 1h1m-3 1h2m-1 4h1m-2 1h1m-2 1h1"/><path stroke="#d37dd7" d="M46 7h1M21 8h1m-1 1h2m-3 1h4m6 0h13m-23 1h5m8 0h8m-21 1h6m19 0h1m-25 1h3m1 0h2m16 0h1m-23 1h3m2 0h1m-5 1h3m1 0h2m-6 1h6m5 0h2m-13 1h7m-6 1h3m-3 1h1m8 2h3m-2 1h2m-3 1h2m-5 1h4m-5 1h4m-5 1h4m-4 1h3m-3 1h2m-2 1h2m30 14h1m2 0h4m-10 1h9m-6 1h6m-3 1h2m0 4h1m-4 2h1m-2 1h1m-2 1h1m-2 1h1m-1 1h1"/><path stroke="#2c2336" d="M65 11h1m-1 1h1m-4 2h1m-5 1h5m-8 1h1m2 0h4m-12 1h1m4 0h7m-16 1h1m5 0h9m-19 1h2m5 0h11m-32 1h3m9 0h1m5 0h13m-33 1h4m8 0h1m8 0h11m-32 1h3m7 0h1m12 0h3m1 0h6m-7 1h6m-8 1h6m-34 1h2m25 0h5m-32 1h2m24 0h10m-6 1h6m2 0h1m-11 1h6m3 0h1m-13 1h7m3 0h1m-11 1h9m-9 1h4m-4 1h7m-6 1h5m-5 1h4m-4 1h2m-3 1h1m-23 1h1m-1 1h1m-2 1h2m-2 1h1m-2 1h1m-1 8h1m-2 1h2m-3 1h2m-6 1h5m-2 1h1m-6 1h4m-6 1h4"/><path stroke="#323e56" d="M64 13h1m-2 1h2m-2 1h2m-3 1h2m-2 1h1m-2 1h2m-3 1h2m-3 1h2m-3 1h2m-2 6h2m-4 1h3m-5 1h3"/><path stroke="#171117" d="M56 16h2m-27 1h2m18 0h4m8 0h1m-32 1h2m13 0h5m-19 1h1m10 0h5m-8 1h5m-21 1h1m13 0h8m-10 1h1m5 0h6m3 0h1m-27 1h1m8 0h1m5 0h11m-30 1h2m10 0h1m5 0h2m3 0h5m6 0h1m-36 1h1m11 0h2m8 0h6m5 0h2m-35 1h1m2 0h2m6 0h2m7 0h7m-26 1h3m6 0h2m9 0h10m-30 1h2m6 0h2m11 0h7m-28 1h2m6 0h1m13 0h3m11 0h1m-37 1h1m6 0h1m11 0h1m14 0h1m-29 1h1m12 0h2m8 0h2m-35 1h1m9 0h1m3 0h1m9 0h2m-26 1h1m3 0h1m4 0h1m3 0h2m10 0h1m9 0h1m-36 1h1m8 0h1m3 0h2m-15 1h3m5 0h1m3 0h2m-14 1h4m4 0h1m-8 1h2m-1 1h1m15 4h2m-17 3h1m-2 1h1m6 0h1m-9 1h1m7 0h1m-10 1h1m3 0h1m3 0h1m-10 1h1m2 0h3m1 0h1m4 0h2m-15 1h6m4 0h5m-16 1h6m4 0h1m4 0h1m-18 1h4m7 0h2m27 0h3m-45 1h9m3 0h1m-14 1h5m6 0h2m1 0h1m3 0h1m-12 1h4m7 0h1m-2 1h1m-2 1h2m-4 1h3m4 0h1m-10 1h4m3 0h3m-8 1h5m2 0h1m-1 1h1m-1 1h1m-2 1h1m-1 1h1m22 0h1m-21 1h1m13 0h1m-16 1h2m8 0h1m4 0h2m2 0h1m-20 1h1m3 0h1m1 0h1m3 0h2m3 0h2m-15 1h3m1 0h2m3 0h1m4 0h1m1 0h1m-16 1h2m1 0h2m9 0h1m2 0h1m2 0h1m-21 1h2m1 0h2m1 0h1m13 0h1m-17 1h1m1 0h2m-1 1h1m13 1h1m-2 1h1m-12 2h1"/><path stroke="#f7ff61" d="M29 17h1m-6 2h1m-1 1h1"/><path stroke="#bbc860" d="M30 17h1m-1 1h2m-9 2h1m0 1h1m3 2h2m-4 1h2"/><path stroke="#fff" d="M26 18h4m-5 1h2"/><path stroke="#b67338" d="M27 19h1m2 0h1m-6 1h1m5 0h1m-9 1h1m3 2h1"/><path stroke="#8f3216" d="M28 19h2m0 2h1m-8 1h1m5 0h1m-6 1h1m-1 1h1"/><path stroke="#a08321" d="M31 19h2m-1 1h1m-2 1h1m-8 1h2m4 0h1m-6 1h1m-1 1h1"/><path stroke="#520c0c" d="M26 20h2m-5 3h1m0 2h3"/><path stroke="#2c56a4" d="M14 21h1m-1 1h1m-2 1h2m-2 1h1m-1 1h1m-1 1h1m1 0h1m-3 1h1m1 0h1m-3 1h1m0 1h1m-1 1h1m1 0h1m-2 2h1m1 1h1m-2 1h2m-1 1h1m1 8h1m-2 1h3m-4 1h1m1 0h2m-5 1h1m2 0h1m-5 1h1m2 0h1m-5 1h1m2 0h1m-5 1h1m-1 2h1m-7 1h1m-1 1h3m8 10h2m0 1h4m-2 1h7m-2 1h4"/><path stroke="#559bd9" d="M14 24h1m-1 1h1m-1 1h1m-1 1h1m-1 1h2m-1 3h2m-1 1h1m-1 1h1m1 12h1m-2 1h2m-3 1h2m-3 1h2m-3 1h2m-4 1h3m-3 1h1m-5 1h4"/><path stroke="#3f0408" d="M35 25h4m-5 1h6m-7 1h6m-7 1h5m3 1h1m-8 1h1m5 0h1m4 0h3m-14 1h3m3 0h1m4 0h1m1 0h1m-13 1h3m8 0h2m-11 1h1m10 0h1m-1 1h1m-1 1h1m-23 6h2m-4 1h1m2 0h2m-4 1h2m0 1h3"/><path stroke="#515065" d="M58 26h4"/><path stroke="#94202c" d="M39 27h1m-3 1h3m-7 1h4m-3 1h1m5 0h1m-5 1h3m1 0h1m4 0h1m-13 1h1m3 0h1m1 0h3m-9 1h1m1 0h1m4 0h1m5 0h1m-14 1h1m1 0h2m4 0h1m-15 1h1m8 0h1m4 0h1m-15 1h1m2 0h1m5 0h1m-11 1h3m7 0h1m-11 1h2m8 0h1m-10 1h2m16 0h1m-18 1h1m6 1h1m-11 1h1m4 0h3m2 0h1m2 0h1m3 0h1m-17 1h2m3 0h2m8 0h1m-11 1h2m-2 1h1m8 1h1m-2 1h5m-6 1h1"/><path stroke="#8f634f" d="M40 27h1m-1 1h3m-11 1h1m8 0h2m-12 1h2m-3 1h3m-4 1h2m-2 1h1m-1 1h1m16 2h1m-1 1h2m-2 1h4m-3 1h1m3 0h1m-5 1h2m-21 1h2m18 0h1m-21 1h2m20 0h1m2 0h1m-26 1h3m11 0h1m8 0h2m-24 1h1m13 0h1m-15 1h1m2 0h1m10 0h1m-14 1h2m7 0h1m-10 1h1m1 0h1m3 1h1m10 0h5m-26 1h3m2 0h1m3 0h1m10 0h3m3 0h3m-22 1h2m4 0h2m4 0h1m2 0h2m4 0h2m-25 1h2m4 0h3m10 0h2m3 0h2m-23 1h2m16 0h1m-22 1h2m1 0h2m-5 1h1m3 0h1m17 0h2m-24 1h1m1 0h1m1 0h1m10 0h1m6 0h2m-26 1h1m1 0h2m5 0h1m4 0h1m2 0h2m-14 1h1m3 0h1m4 0h1m3 0h1m8 0h1m-23 1h1m15 0h1m2 0h1m1 0h3m-25 1h1m2 0h1m11 0h1m1 0h1m2 0h1m2 0h2m-25 1h1m1 0h2m5 0h1m6 0h2m2 0h1m-22 1h4m13 0h3m1 0h1m-21 1h1m4 0h2m2 0h1m1 0h1m3 0h4m1 0h2m-24 1h2m5 0h1m2 0h3m1 0h1m2 0h2m1 0h1m2 0h1m-24 1h1m2 0h1m1 0h2m3 0h2m3 0h1m1 0h2m-16 1h1m2 0h1m2 0h2m7 0h1m-15 1h1m1 0h1m3 0h1m-5 1h1m7 0h1m-1 1h1m-4 1h1m2 0h2m-5 1h1m2 0h3m3 0h4m-12 1h1m1 0h2m1 0h5m-10 1h5m2 0h3m2 0h2m-13 1h2m1 0h1m6 0h2m-14 1h1m2 0h1m2 0h2m2 0h3m-13 1h2m1 0h2m-4 1h1m2 0h2m7 0h1m-10 1h4m4 0h1m-7 1h4"/><path stroke="#593935" d="M41 27h1m-11 2h1m11 0h1m-14 1h1m12 0h1m-1 1h1m-16 2h1m-1 1h1m1 0h1m-3 1h2m-2 1h2m20 2h4m-28 1h1m25 0h1m-27 1h2m-1 1h1m21 0h1m2 0h3m-6 1h1m4 0h1m-5 1h1m2 0h1m-3 1h1m0 1h1m-25 1h2m16 0h4m3 0h2m-27 1h1m2 0h1m16 0h4m3 0h3m-31 1h1m2 0h2m5 0h1m19 0h1m-33 1h1m10 0h1m18 0h2m-22 1h2m19 0h1m-31 1h2m1 0h1m5 0h1m21 0h1m-32 1h2m1 0h4m23 0h2m-33 1h2m1 0h1m1 0h1m23 0h1m-30 1h1m4 0h1m3 0h1m20 0h1m-32 1h2m1 0h1m6 0h1m20 0h1m-33 1h2m3 0h1m4 0h2m21 0h1m-35 1h4m5 0h1m1 0h1m23 0h1m-36 1h2m3 0h1m2 0h1m1 0h2m-8 1h1m5 0h1m21 0h1m-23 1h1m10 0h1m10 0h3m-20 1h1m4 0h2m11 0h1m-22 1h1m2 0h1m5 0h1m11 0h1m-23 1h2m2 0h1m6 0h1m8 0h1m-22 1h2m4 0h1m5 0h2m-15 1h2m2 0h2m1 0h1m4 0h4m1 0h1m2 0h1m-18 1h1m1 0h1m1 0h1m1 0h1m2 0h4m3 0h1m-18 1h3m3 0h3m2 0h1m1 0h1m2 0h2m-18 1h1m3 0h1m2 0h3m1 0h1m1 0h2m1 0h1m-13 1h1m2 0h2m1 0h2m2 0h2m4 0h2m-18 1h1m2 0h1m2 0h2m3 0h3m-11 1h1m3 0h1m8 0h5m-18 1h2m15 0h1m-17 1h3m-1 1h2m-1 1h1m0 1h1m-3 1h1m3 1h1m4 0h1"/><path stroke="#8befff" d="M15 29h1m-1 1h1m-6 21h2"/><path stroke="#c75041" d="M37 29h3m-5 1h4m-1 2h1m5 0h1m-11 1h1m2 0h1m1 0h1m2 0h1m1 0h2m-9 1h1m2 0h1m2 0h2m1 0h1m-15 1h2m1 0h1m1 0h1m4 0h1m3 0h1m-16 1h3m1 0h1m1 0h1m3 0h2m2 0h1m-16 1h3m2 0h1m6 0h2m-16 1h1m6 0h1m6 0h4m-17 1h1m4 0h1m3 0h1m4 0h2m-11 1h1m7 1h1m-5 2h3"/><path stroke="#ac7283" d="M42 30h1m-12 2h1m-2 1h1m15 6h1m1 0h3m-5 1h1m2 0h2m-7 1h1m1 0h2m-5 1h2m3 0h1m2 0h2m-18 1h2m6 0h1m5 0h1m-20 1h1m3 0h2m3 0h1m2 0h1m1 0h2m4 0h1m-21 1h1m2 0h2m4 0h4m2 0h2m4 0h1m-20 1h2m4 0h1m-10 1h1m7 0h2m-11 1h2m2 0h1m2 0h1m-4 1h1m1 0h1m14 0h3m-21 1h2m10 0h1m2 0h2m2 0h4m-18 1h1m3 0h1m5 0h2m1 0h1m2 0h3m-19 1h3m8 0h1m2 0h2m-19 1h1m2 0h1m11 0h1m2 0h3m-22 1h2m12 0h1m2 0h4m-21 1h1m4 0h1m11 0h1m1 0h2m-18 1h3m4 0h1m2 0h1m3 0h1m2 0h2m-19 1h2m3 0h2m3 0h1m2 0h2m2 0h2m-19 1h1m2 0h3m2 0h2m2 0h3m2 0h1m-19 1h2m1 0h4m1 0h1m1 0h1m2 0h1m1 0h1m1 0h2m-19 1h1m2 0h1m1 0h3m2 0h4m3 0h2m-17 1h1m2 0h1m4 0h4m4 0h1m-21 1h1m2 0h2m3 0h1m4 0h3m-13 1h2m2 0h2m5 0h2m-13 1h1m3 0h2m6 0h1m-1 7h1m0 1h2m3 0h2m-9 1h1m1 0h3m2 0h1m-8 1h2m2 0h2m-5 1h2m2 0h2m-5 1h2m3 0h2m-5 1h4"/><path stroke="#5a181f" d="M29 31h1"/><path stroke="#e67356" d="M38 33h1m2 0h1m-8 1h1m3 0h2m2 0h1m-9 1h1m3 0h1m-5 1h1m8 0h2m-1 1h2m-17 1h2m3 0h1m-5 1h1m1 1h2"/><path stroke="#ff9b72" d="M45 34h1m-7 1h2m2 0h3m-8 1h3m-8 1h2m3 0h2m-7 1h1m-3 1h3m3 0h1m-1 1h1"/><path stroke="#ac4c5f" d="M29 37h1m7 0h1m-1 1h1m-3 1h2m-12 1h1m3 0h3m3 0h2m6 0h3m-22 1h1m5 0h5m1 0h1m6 0h1m-20 1h1m8 0h2m-2 1h2m2 0h1m-5 1h1m10 1h1m-4 1h5m-2 1h3m-8 1h2m4 0h2m-10 1h2m4 0h3m-9 1h2"/><path stroke="#ff7b5b" d="M40 37h2m-3 1h1m1 0h1m-3 1h4m-4 1h3"/><path stroke="#ffbfa5" d="M31 38h2m7 0h1"/><path stroke="#fa6d54" d="M38 38h1m-1 2h1m-2 1h1m3 7h4m-6 1h2"/><path stroke="#ee4a2b" d="M42 40h1m-5 1h4m-3 1h3"/><path stroke="#ecb793" d="M45 41h1m-1 1h3m-2 1h3m-13 1h2m-2 1h2m-3 1h3m-3 1h2m4 2h2m-1 2h4m-7 1h8m-9 1h6m2 0h2m-10 1h2m1 0h2m-5 1h1m2 0h2m1 0h2m-5 1h1m2 0h1m-1 1h1"/><path stroke="#d19368" d="M44 43h2m-8 1h1m1 0h2m4 0h4m-15 1h1m2 0h1m8 0h4m-17 1h1m-2 1h2m-2 1h2m-2 1h1m7 1h2m1 0h1m-4 1h1m6 0h1m-1 1h2m-13 1h1m6 0h2m3 0h2m-15 1h2m2 0h1m2 0h3m1 0h2m-13 1h1m2 0h2m2 0h1m3 0h2m1 0h1m-12 1h2m7 0h1m1 0h2m-15 1h1m1 0h1m2 0h1m3 0h1m4 0h1m-16 1h2m3 0h2m2 0h2m-6 1h1m3 0h2m4 14h2m-4 2h2m-1 1h3"/><path stroke="#8e4f3a" d="M50 46h3m-6 1h1m4 0h3m-3 1h5m-29 3h1m4 0h2m-7 1h1m4 0h1m-7 1h1m1 0h1m-4 1h2m1 0h1m-4 1h1m2 0h2m-6 1h2m3 0h1m23 0h2m-28 1h3m1 0h1m17 0h1m3 0h2m-28 1h2m21 0h1m2 0h1m-28 1h2m14 0h1m11 0h1m2 0h1m-21 1h1m9 0h1m-11 1h1m1 0h2m6 0h1m5 0h1m-14 1h1m10 0h1m-3 1h1m1 0h1m-10 1h1m6 0h3m-14 1h1m2 0h1m7 0h1m1 0h1m-14 1h1m9 0h1"/></svg>